<svg width="6" height="10" viewBox="0 0 6 10" fill="none" xmlns="http://www.w3.org/2000/svg">
<path d="M-1.92397e-05 8.91994V1.47328C-0.000789303 1.34086 0.037892 1.21122 0.111093 1.10087C0.184293 0.990523 0.288697 0.904475 0.410993 0.853698C0.533289 0.80292 0.667936 0.789712 0.797768 0.815759C0.9276 0.841805 1.04673 0.905925 1.13998 0.999945L4.85998 4.72661C4.98415 4.85152 5.05384 5.02049 5.05384 5.19661C5.05384 5.37274 4.98415 5.5417 4.85998 5.66661L1.13998 9.39328C1.04673 9.4873 0.9276 9.55142 0.797768 9.57747C0.667936 9.60351 0.533289 9.5903 0.410993 9.53953C0.288697 9.48875 0.184293 9.4027 0.111093 9.29235C0.037892 9.18201 -0.000789303 9.05236 -1.92397e-05 8.91994Z" fill="#1470F5"/>
</svg>
