<svg width="52" height="52" viewBox="0 0 52 52" fill="none" xmlns="http://www.w3.org/2000/svg">
<path opacity="0.1" d="M26 52C40.3594 52 52 40.3594 52 26C52 11.6406 40.3594 0 26 0C11.6406 0 0 11.6406 0 26C0 40.3594 11.6406 52 26 52Z" fill="#1470F5"/>
<path d="M33.445 16.9517H29.4592C29.4397 16.0613 29.0667 15.2138 28.4201 14.5909C27.7734 13.968 26.9047 13.6191 26 13.6191C25.0953 13.6191 24.2265 13.968 23.5799 14.5909C22.9333 15.2138 22.5603 16.0613 22.5407 16.9517H18.5549C18.2316 16.9517 17.9215 17.0778 17.6925 17.3025C17.4636 17.5272 17.3344 17.832 17.3333 18.1503V37.1785C17.3333 37.4974 17.462 37.8033 17.6911 38.0288C17.9202 38.2544 18.2309 38.381 18.5549 38.381H33.445C33.769 38.381 34.0797 38.2544 34.3088 38.0288C34.5379 37.8033 34.6666 37.4974 34.6666 37.1785V18.1503C34.6656 17.832 34.5364 17.5272 34.3074 17.3025C34.0784 17.0778 33.7683 16.9517 33.445 16.9517ZM26 16.0198C26.2577 16.0199 26.5058 16.1161 26.6945 16.289C26.8831 16.4619 26.9982 16.6986 27.0168 16.9517H24.9832C25.0017 16.6986 25.1169 16.4619 25.3055 16.289C25.4941 16.1161 25.7423 16.0199 26 16.0198ZM23.7728 19.3536H28.2271V20.2704H23.7728V19.3536ZM26.5015 33.501H22.4786C22.1549 33.501 21.8443 33.3743 21.6154 33.149C21.3864 32.9236 21.2578 32.6179 21.2578 32.2992C21.2578 31.9805 21.3864 31.6748 21.6154 31.4494C21.8443 31.224 22.1549 31.0974 22.4786 31.0974H26.5015C26.8253 31.0974 27.1358 31.224 27.3648 31.4494C27.5937 31.6748 27.7223 31.9805 27.7223 32.2992C27.7223 32.6179 27.5937 32.9236 27.3648 33.149C27.1358 33.3743 26.8253 33.501 26.5015 33.501ZM29.36 30.129H22.4786C22.1602 30.121 21.8575 29.9908 21.6352 29.7662C21.4128 29.5416 21.2884 29.2405 21.2884 28.9269C21.2884 28.6133 21.4128 28.3121 21.6352 28.0875C21.8575 27.8629 22.1602 27.7328 22.4786 27.7247H29.36C29.6785 27.7328 29.9812 27.8629 30.2035 28.0875C30.4258 28.3121 30.5503 28.6133 30.5503 28.9269C30.5503 29.2405 30.4258 29.5416 30.2035 29.7662C29.9812 29.9908 29.6785 30.121 29.36 30.129ZM29.36 26.7563H22.4786C22.1602 26.7482 21.8575 26.6181 21.6352 26.3935C21.4128 26.1689 21.2884 25.8677 21.2884 25.5541C21.2884 25.2406 21.4128 24.9394 21.6352 24.7148C21.8575 24.4902 22.1602 24.36 22.4786 24.352H29.36C29.6785 24.36 29.9812 24.4902 30.2035 24.7148C30.4258 24.9394 30.5503 25.2406 30.5503 25.5541C30.5503 25.8677 30.4258 26.1689 30.2035 26.3935C29.9812 26.6181 29.6785 26.7482 29.36 26.7563Z" fill="#1470F5"/>
</svg>
