<svg width="22" height="22" viewBox="0 0 22 22" fill="none" xmlns="http://www.w3.org/2000/svg">
<g clip-path="url(#clip0_2130_17247)">
<path d="M22 6.41667V7.33333H0V6.41667C0 3.88575 2.05242 1.83333 4.58333 1.83333H5.5V0.916667C5.5 0.410667 5.91067 0 6.41667 0C6.92267 0 7.33333 0.410667 7.33333 0.916667V1.83333H14.6667V0.916667C14.6667 0.410667 15.0773 0 15.5833 0C16.0893 0 16.5 0.410667 16.5 0.916667V1.83333H17.4167C19.9476 1.83333 22 3.88575 22 6.41667ZM22 15.5833C22 19.1217 19.1208 22 15.5833 22C12.0459 22 9.16667 19.1217 9.16667 15.5833C9.16667 12.045 12.0459 9.16667 15.5833 9.16667C19.1208 9.16667 22 12.045 22 15.5833ZM17.4167 16.1205L16.5 15.2038V13.75C16.5 13.244 16.0893 12.8333 15.5833 12.8333C15.0773 12.8333 14.6667 13.244 14.6667 13.75V15.5833C14.6667 15.8263 14.7629 16.06 14.9352 16.2314L16.1205 17.4167C16.478 17.7742 17.0592 17.7742 17.4167 17.4167C17.7742 17.0592 17.7742 16.478 17.4167 16.1205ZM7.33333 15.5833C7.33333 12.9901 8.53233 10.6792 10.4032 9.16667H0V17.4167C0 19.9476 2.05242 22 4.58333 22H10.4032C8.53233 20.4875 7.33333 18.1766 7.33333 15.5833Z" fill="#1470F5"/>
</g>
<defs>
<clipPath id="clip0_2130_17247">
<rect width="22" height="22" fill="white"/>
</clipPath>
</defs>
</svg>
