<svg width="22" height="22" viewBox="0 0 22 22" fill="none" xmlns="http://www.w3.org/2000/svg">
<g clip-path="url(#clip0_2130_17243)">
<path d="M15.5833 9.20242C12.0459 9.20242 9.16667 12.0807 9.16667 15.6191C9.16667 19.1373 12.0459 22 15.5833 22C19.1208 22 22 19.1217 22 15.5833C22 12.0652 19.1208 9.20242 15.5833 9.20242ZM15.5833 20.1667C13.0561 20.1667 11 18.1262 11 15.6191C11 13.0918 13.0561 11.0357 15.5833 11.0357C18.1106 11.0357 20.1667 13.0763 20.1667 15.5833C20.1667 18.1106 18.1106 20.1667 15.5833 20.1667ZM17.1481 15.8519C17.5065 16.2103 17.5065 16.7897 17.1481 17.1481C16.9693 17.3268 16.7347 17.4167 16.5 17.4167C16.2653 17.4167 16.0307 17.3268 15.8519 17.1481L14.9352 16.2314C14.7629 16.0591 14.6667 15.8263 14.6667 15.5833V13.75C14.6667 13.244 15.0764 12.8333 15.5833 12.8333C16.0903 12.8333 16.5 13.244 16.5 13.75V15.2038L17.1481 15.8519ZM22 6.41667V8.25C22 8.756 21.5903 9.16667 21.0833 9.16667C20.5764 9.16667 20.1667 8.756 20.1667 8.25V6.41667C20.1667 4.9005 18.9328 3.66667 17.4167 3.66667H4.58333C3.06717 3.66667 1.83333 4.9005 1.83333 6.41667V7.33333H10.0833C10.5893 7.33333 11 7.744 11 8.25C11 8.756 10.5893 9.16667 10.0833 9.16667H1.83333V17.4167C1.83333 18.9328 3.06717 20.1667 4.58333 20.1667H8.25C8.756 20.1667 9.16667 20.5773 9.16667 21.0833C9.16667 21.5893 8.756 22 8.25 22H4.58333C2.05608 22 0 19.9439 0 17.4167V6.41667C0 3.88942 2.05608 1.83333 4.58333 1.83333H5.5V0.916667C5.5 0.410667 5.91067 0 6.41667 0C6.92267 0 7.33333 0.410667 7.33333 0.916667V1.83333H14.6667V0.916667C14.6667 0.410667 15.0764 0 15.5833 0C16.0903 0 16.5 0.410667 16.5 0.916667V1.83333H17.4167C19.9439 1.83333 22 3.88942 22 6.41667Z" fill="#7D848D"/>
</g>
<defs>
<clipPath id="clip0_2130_17243">
<rect width="22" height="22" fill="white"/>
</clipPath>
</defs>
</svg>
