<svg width="22" height="22" viewBox="0 0 22 22" fill="none" xmlns="http://www.w3.org/2000/svg">
<g clip-path="url(#clip0_1005_27972)">
<rect x="1" y="1" width="7" height="7" fill="#1470F5"/>
<rect x="1" y="14" width="7" height="7" fill="#1470F5"/>
<rect x="14" y="1" width="7" height="7" fill="#1470F5"/>
<rect x="14" y="14" width="7" height="7" rx="3.5" fill="#1470F5"/>
<path d="M7.59619 0H1.67594C0.751421 0 -0.000732422 0.752153 -0.000732422 1.67667V7.59715C-0.000732422 8.52166 0.751421 9.27381 1.67594 9.27381H7.59625C8.52076 9.27381 9.27291 8.52166 9.27291 7.59715V1.67667C9.27286 0.752153 8.52071 0 7.59619 0ZM1.67594 7.59709V1.67667H7.59625L7.59642 7.59715L1.67594 7.59709Z" fill="#1470F5"/>
<path d="M14.2757 9.27376H20.196C21.1205 9.27376 21.8726 8.52161 21.8726 7.59709V1.67667C21.8726 0.752153 21.1205 0 20.196 0H14.2757C13.3512 0 12.599 0.752153 12.599 1.67667V7.59715C12.599 8.5216 13.3512 9.27376 14.2757 9.27376ZM14.2757 1.67667H20.196L20.1962 7.59715H14.2757V1.67667Z" fill="#1470F5"/>
<path d="M7.59619 12.5996H1.67594C0.751421 12.5996 -0.000732422 13.3518 -0.000732422 14.2763V20.1968C-0.000732422 21.1213 0.751421 21.8735 1.67594 21.8735H7.59625C8.52076 21.8735 9.27291 21.1213 9.27291 20.1968V14.2763C9.27286 13.3518 8.52071 12.5996 7.59619 12.5996ZM1.67594 20.1968V14.2763H7.59625L7.59642 20.1968L1.67594 20.1968Z" fill="#1470F5"/>
<path d="M21.758 20.5729L20.5939 19.4088C21.0645 18.7117 21.3396 17.8722 21.3396 16.9696C21.3396 14.56 19.3791 12.5996 16.9694 12.5996C14.5597 12.5996 12.5992 14.56 12.5992 16.9696C12.5992 19.3796 14.5597 21.3402 16.9694 21.3402C17.8718 21.3402 18.7113 21.065 19.4084 20.5944L20.5725 21.7585C20.9181 22.1041 21.5025 22.075 21.813 21.698C22.0838 21.3692 22.0589 20.8739 21.758 20.5729ZM19.6624 16.9694C19.6624 18.4568 18.4567 19.6626 16.9693 19.6626C15.4819 19.6626 14.2761 18.4568 14.2761 16.9694C14.2761 15.482 15.4819 14.2762 16.9693 14.2762C18.4567 14.2762 19.6624 15.482 19.6624 16.9694Z" fill="#1470F5"/>
</g>
<defs>
<clipPath id="clip0_1005_27972">
<rect width="22" height="22" fill="white"/>
</clipPath>
</defs>
</svg>
