<svg width="16" height="16" viewBox="0 0 16 16" fill="none" xmlns="http://www.w3.org/2000/svg">
<g clip-path="url(#clip0_1880_63215)">
<path d="M12.6666 5.33333V4.66667C12.6666 3.42899 12.175 2.242 11.2998 1.36684C10.4246 0.491665 9.23766 0 7.99998 0C6.7623 0 5.57532 0.491665 4.70015 1.36684C3.82498 2.242 3.33331 3.42899 3.33331 4.66667V5.33333H1.33331V14C1.33331 14.5304 1.54403 15.0391 1.9191 15.4142C2.29417 15.7893 2.80288 16 3.33331 16H12.6666C13.1971 16 13.7058 15.7893 14.0809 15.4142C14.4559 15.0391 14.6666 14.5304 14.6666 14V5.33333H12.6666ZM8.66665 12H7.33331V9.33333H8.66665V12ZM11.3333 5.33333H4.66665V4.66667C4.66665 3.78261 5.01784 2.93477 5.64296 2.30964C6.26808 1.68452 7.11592 1.33333 7.99998 1.33333C8.88403 1.33333 9.73188 1.68452 10.357 2.30964C10.9821 2.93477 11.3333 3.78261 11.3333 4.66667V5.33333Z" fill="#FF0019" fill-opacity="0.97"/>
</g>
<defs>
<clipPath id="clip0_1880_63215">
<rect width="16" height="16" fill="white"/>
</clipPath>
</defs>
</svg>
