<svg width="28" height="26" viewBox="0 0 28 26" fill="none" xmlns="http://www.w3.org/2000/svg">
<path d="M9.07216 2.69294L16.0878 6.80825C16.6421 7.13277 17.3492 6.93994 17.6675 6.37791C17.9881 5.81588 17.7983 5.09628 17.2451 4.77294L10.2295 0.657624C9.67512 0.333103 8.968 0.525934 8.64859 1.08679C8.32917 1.64765 8.51897 2.36724 9.07216 2.69294ZM15.5103 7.8265L8.49466 3.71119L4.44409 10.8389L11.4597 14.9542L15.5103 7.8265ZM2.70697 13.8936L9.72257 18.009C10.2758 18.3335 10.984 18.1406 11.3023 17.5786C11.6206 17.0166 11.4319 16.297 10.8799 15.9736L3.86427 11.8583C3.30992 11.5338 2.60281 11.7266 2.28339 12.2875C1.96282 12.8495 2.15377 13.5691 2.70697 13.8936ZM26.882 17.2118L14.0636 10.3721L12.9063 12.4086L25.146 20.2665C25.9758 20.7533 27.0382 20.4652 27.5173 19.621C27.9965 18.7768 27.7118 17.6985 26.882 17.2118ZM14.1759 23.1484C14.1759 22.4982 13.6574 21.9726 13.0186 21.9726H2.60281C1.96282 21.9726 1.4455 22.4982 1.4455 23.1484C1.4455 23.7974 1.4455 24.3242 1.4455 24.3242L0.25 24.2995L0.288191 25.5H15.3332L15.3876 24.3736L14.2488 24.3242C14.2488 24.3242 14.1759 23.7974 14.1759 23.1484Z" fill="#B41712"/>
</svg>
