<svg width="24" height="24" viewBox="0 0 24 22" fill="none" xmlns="http://www.w3.org/2000/svg">
<path d="M13.8887 7.40479L13.7488 7.64846L13.0835 8.80759L21.719 13.3693L21.7323 13.3763L21.7454 13.3839C22.7076 13.9427 23.034 15.1763 22.4815 16.1401C21.9268 17.1077 20.6937 17.4404 19.7295 16.8804L19.7166 16.8729L19.7039 16.8649L11.4645 11.628L10.803 12.7804L10.6603 13.0289C10.9603 13.5133 10.9897 14.1434 10.6891 14.669C10.2516 15.4338 9.2757 15.6983 8.51248 15.255L3.41024 12.292L3.41022 12.292C2.6504 11.8507 2.38966 10.8751 2.82897 10.1126M13.8887 7.40479L9.77927 13.0576L9.73082 13.141M13.8887 7.40479C14.4567 7.42241 15.0152 7.13345 15.3177 6.60551C15.7552 5.84492 15.498 4.86895 14.7363 4.42773C14.7361 4.42761 14.7359 4.42749 14.7357 4.42736L9.63444 1.46492L9.63387 1.46459C8.8701 1.02195 7.89647 1.28624 7.45796 2.04851C7.15419 2.57655 7.18599 3.20737 7.4873 3.69194L7.34567 3.93868L4.39979 9.07064L4.25945 9.31513M13.8887 7.40479L10.107 12.4922L10.104 12.4905L5.00521 9.52943L5.00464 9.5291C5.00369 9.52855 5.00274 9.528 5.00179 9.52745C4.76687 9.39194 4.51221 9.32318 4.25945 9.31513M2.82897 10.1126L3.47877 10.487L2.82873 10.113C2.82881 10.1129 2.82889 10.1127 2.82897 10.1126ZM2.82897 10.1126C3.13221 9.58584 3.69104 9.29702 4.25945 9.31513M4.25945 9.31513L4.02829 9.71783L4.6736 10.0926L4.67694 10.0945L4.67702 10.0946L9.77586 13.0556L9.77922 13.0576L9.73082 13.141M9.73082 13.141L4.62856 10.178C4.2254 9.94434 3.71113 10.0832 3.47883 10.487C3.24568 10.8917 3.38456 11.4098 3.78688 11.6434L8.88914 14.6064C9.29146 14.8401 9.80657 14.7013 10.038 14.2966C10.2695 13.8919 10.1323 13.3738 9.73082 13.141ZM2.11945 18.3853V18.3879L2.01533 18.3858L1.225 18.3696L1.25039 19.1597L1.27816 20.0241L1.30149 20.75H2.02778H12.9696H13.6839L13.7187 20.0365L13.7583 19.2255L13.795 18.472L13.0413 18.4397L12.8793 18.4327C12.8784 18.3917 12.8779 18.3496 12.8779 18.3068C12.8779 17.4281 12.1687 16.7103 11.2862 16.7103H3.71113C2.82737 16.7103 2.11945 17.4286 2.11945 18.3068V18.3096V18.3123V18.315V18.3178V18.3205V18.3232V18.326V18.3287V18.3314V18.3341V18.3368V18.3396V18.3423V18.345V18.3477V18.3504V18.3531V18.3558V18.3585V18.3612V18.3639V18.3666V18.3693V18.3719V18.3746V18.3773V18.38V18.3827V18.3853Z" stroke="currentColor" stroke-width="1.5"/>
</svg>
