<svg width="24" height="24" viewBox="0 0 24 24" fill="none" xmlns="http://www.w3.org/2000/svg">
<g clip-path="url(#clip0_338_32666)">
<path d="M16.0833 6.16667H15.5V5.58333C15.5 5.26133 15.2392 5 14.9167 5C14.5941 5 14.3333 5.26133 14.3333 5.58333V6.16667H9.66667V5.58333C9.66667 5.26133 9.40592 5 9.08333 5C8.76075 5 8.5 5.26133 8.5 5.58333V6.16667H7.91667C6.30842 6.16667 5 7.47508 5 9.08333V16.0833C5 17.6916 6.30842 19 7.91667 19H16.0833C17.6916 19 19 17.6916 19 16.0833V9.08333C19 7.47508 17.6916 6.16667 16.0833 6.16667ZM7.91667 7.33333H16.0833C17.0482 7.33333 17.8333 8.1185 17.8333 9.08333V9.66667H6.16667V9.08333C6.16667 8.1185 6.95183 7.33333 7.91667 7.33333ZM16.0833 17.8333H7.91667C6.95183 17.8333 6.16667 17.0482 6.16667 16.0833V10.8333H17.8333V16.0833C17.8333 17.0482 17.0482 17.8333 16.0833 17.8333ZM16.0833 13.1667C16.0833 13.4887 15.8226 13.75 15.5 13.75H8.5C8.17742 13.75 7.91667 13.4887 7.91667 13.1667C7.91667 12.8447 8.17742 12.5833 8.5 12.5833H15.5C15.8226 12.5833 16.0833 12.8447 16.0833 13.1667ZM12 15.5C12 15.822 11.7392 16.0833 11.4167 16.0833H8.5C8.17742 16.0833 7.91667 15.822 7.91667 15.5C7.91667 15.178 8.17742 14.9167 8.5 14.9167H11.4167C11.7392 14.9167 12 15.178 12 15.5Z" fill="black"/>
</g>
<defs>
<clipPath id="clip0_338_32666">
<rect width="14" height="14" fill="white" transform="translate(5 5)"/>
</clipPath>
</defs>
</svg>
