<svg width="16" height="16" viewBox="0 0 16 16" fill="none" xmlns="http://www.w3.org/2000/svg">
<g clip-path="url(#clip0_1880_63208)">
<path d="M12 11.3333V2C12 0.897333 11.1027 0 10 0H2C0.897333 0 0 0.897333 0 2V11.9027C0 12.4313 0.29 12.9153 0.756 13.1653C0.968 13.2793 1.20067 13.3353 1.43267 13.3353C1.71 13.3353 1.98667 13.2547 2.22667 13.0953L4.86867 11.3333H12ZM6.66667 9.33333H5.33333V8H6.66667V9.33333ZM4.71467 2.46733C5.16867 2.086 5.766 1.92467 6.35667 2.032C7.16267 2.17267 7.826 2.83533 7.968 3.64333C8.11667 4.49133 7.71333 5.33867 6.964 5.75267C6.666 5.91667 6.666 6.07667 6.666 6.33333V6.66667H5.33267V6C5.33267 5.128 6.02467 4.74733 6.32 4.58467C6.51333 4.47867 6.71667 4.228 6.65467 3.874C6.60867 3.61267 6.38667 3.39067 6.126 3.34533C5.922 3.308 5.72467 3.36 5.57133 3.48933C5.41933 3.616 5.33267 3.80267 5.33267 4.00067H3.99933C3.99933 3.408 4.26 2.84933 4.714 2.468L4.71467 2.46733ZM16 4.66667V14.5693C16 15.098 15.71 15.582 15.244 15.832C15.032 15.946 14.7993 16.002 14.5673 16.0027C14.29 16.0027 14.0133 15.922 13.774 15.7627L11.1313 14H4V13.5153L5.272 12.6667H13.3333V2.66667H14C15.1027 2.66667 16 3.564 16 4.66667Z" fill="#3B56A6"/>
</g>
<defs>
<clipPath id="clip0_1880_63208">
<rect width="16" height="16" fill="white"/>
</clipPath>
</defs>
</svg>
