<svg width="52" height="52" viewBox="0 0 52 52" fill="none" xmlns="http://www.w3.org/2000/svg">
<path d="M26 52C40.3594 52 52 40.3594 52 26C52 11.6406 40.3594 0 26 0C11.6406 0 0 11.6406 0 26C0 40.3594 11.6406 52 26 52Z" fill="#CD4279" fill-opacity="0.1"/>
<path d="M34.8963 14.8569H17.1036C16.1803 14.8569 15.2947 15.2231 14.6413 15.875C13.988 16.5269 13.6203 17.4112 13.619 18.3338V30.0741C13.6192 30.8603 13.8855 31.6232 14.3747 32.2388C14.864 32.8545 15.5473 33.2867 16.3135 33.4651C16.1868 33.7888 16.0397 34.1042 15.8731 34.4094C15.6681 34.7828 15.4379 35.1418 15.1841 35.484C15.0896 35.6133 15.0093 35.7087 14.9582 35.7673C14.9308 35.8022 14.9129 35.822 14.8987 35.8371L14.8845 35.8523C14.7835 35.9657 14.7181 36.1063 14.6964 36.2566C14.6747 36.4069 14.6976 36.5602 14.7623 36.6976C14.8271 36.8349 14.9307 36.9503 15.0605 37.0293C15.1902 37.1084 15.3404 37.1476 15.4922 37.1421C16.8787 37.0827 18.2538 36.5888 19.3946 36.0421C20.6554 35.4387 21.7196 34.2885 22.4189 33.552H34.8944C35.8183 33.5525 36.7045 33.1864 37.3583 32.5342C38.0121 31.8821 38.3799 30.9972 38.3809 30.0741V18.3338C38.3797 17.4112 38.012 16.5269 37.3586 15.875C36.7053 15.2231 35.8197 14.8569 34.8963 14.8569Z" fill="#CD4279"/>
</svg>
