<svg width="48" height="48" viewBox="0 0 48 48" fill="none" xmlns="http://www.w3.org/2000/svg">
<rect width="48" height="48" rx="15" fill="#F04A7C"/>
<g clip-path="url(#clip0_1880_63612)">
<path d="M35.9124 11.3125H33.9633L33.5212 11.7065L33.7725 12.1242V19.8474L32.2377 21.3171C32.3724 21.4405 32.4795 21.596 32.545 21.7755L33.0657 23.2026C33.1825 23.5227 33.6353 23.5227 33.7521 23.2026L34.2728 21.7755C34.4402 21.3166 34.8765 21.0114 35.3649 21.0114H35.9124C37.0653 21.0114 38 20.0767 38 18.9237V13.4001C38 12.2472 37.0653 11.3125 35.9124 11.3125Z" fill="white"/>
<path d="M30.9297 11.6738V19.7535L30.3475 20.2873L30.4718 21.0114H31.4528C31.8016 21.0114 32.1233 21.1677 32.34 21.4238C33.4356 21.1699 34.2525 20.1885 34.2525 19.0156V12.473C34.2525 12.0535 34.1477 11.6586 33.9633 11.3125H31.1961L30.9297 11.6738Z" fill="white"/>
<path d="M17.0328 19.453V11.7346L16.8039 11.3125H13.5527L12.9874 11.5656L12.3943 12.7205V20.1854L13.7641 21.0586L15.8542 21.2415C16.0503 21.0958 16.2914 21.0114 16.5472 21.0114H17.5282V20.4295L17.0328 19.453Z" fill="white"/>
<path d="M15.4024 21.0114H14.8548C13.7019 21.0114 12.7672 20.0767 12.7672 18.9237V13.4001C12.7672 12.2472 13.7019 11.3125 14.8548 11.3125H12.0876C10.9347 11.3124 10 12.2471 10 13.4001V18.9237C10 20.0767 10.9347 21.0114 12.0876 21.0114H12.6351C13.1235 21.0114 13.5599 21.3166 13.7273 21.7755L14.248 23.2026C14.3648 23.5227 14.8176 23.5227 14.9344 23.2026L15.4551 21.7755C15.552 21.5097 15.7396 21.296 15.9748 21.1628C15.8039 21.066 15.6079 21.0114 15.4024 21.0114Z" fill="white"/>
<path d="M29.0125 10H20.6258L19.8873 10.3446L18.9859 11.6216V20.2274L19.7605 21.0865L20.7301 21.488H21.6831C22.0028 21.488 22.3033 21.5988 22.542 21.7893L24.7183 21.6921L25.2797 21.9601C25.5362 21.6663 25.9111 21.488 26.3168 21.488H29.0125C30.3782 21.488 31.4852 20.3809 31.4852 19.0153V12.4727C31.4852 11.107 30.3782 10 29.0125 10Z" fill="white"/>
<path d="M24.4504 21.488H21.7546C20.389 21.488 19.2819 20.3809 19.2819 19.0153C19.2819 17.9152 19.2819 13.4698 19.2819 12.4727C19.282 11.107 20.389 10 21.7547 10H18.9875C17.6219 10 16.5148 11.107 16.5148 12.4727V19.0153C16.5148 20.3809 17.6219 21.488 18.9875 21.488H21.6832C22.2617 21.488 22.7785 21.8496 22.9768 22.3931L23.5935 24.0834C23.7319 24.4626 24.2682 24.4626 24.4066 24.0834L25.0233 22.3931C25.1003 22.1821 25.2257 21.999 25.3837 21.8534C25.1347 21.6238 24.8043 21.488 24.4504 21.488Z" fill="white"/>
<path d="M32.863 31.3291H32.0707L31.3099 31.6213L30.4508 32.4382L30.1832 33.3255V36.565L30.6686 36.9291H34.5907C34.9609 36.9291 35.261 36.629 35.261 36.2587V33.727C35.261 32.4027 34.1874 31.3291 32.863 31.3291Z" fill="white"/>
<path d="M19.8864 32.9768C19.5714 32.0201 18.671 31.3291 17.6088 31.3291H16.88L16.3192 31.4898L15.4741 32.1471L15.0328 32.9828V36.3631L15.23 36.7762L15.4661 36.929H19.3364C19.4438 36.929 19.545 36.9031 19.635 36.8582L20.0375 36.3161V33.3114L19.8864 32.9768Z" fill="white"/>
<path d="M32.606 27.2754H32.2818L31.3334 28.3729C31.3334 28.3729 31.0173 29.5373 31.0439 29.5842C31.0705 29.6312 31.611 30.495 31.6272 30.5138C31.6433 30.5325 32.094 30.9269 32.094 30.9269L32.6061 31.0931C33.2985 30.7372 33.7725 30.0163 33.7725 29.1843C33.7725 28.3522 33.2985 27.6312 32.606 27.2754Z" fill="white"/>
<path d="M24.9789 26.3125H24.7324L23.7558 26.9271C23.7558 26.9271 23.3145 27.9224 23.2957 28.0069C23.277 28.0914 23.2957 29.1845 23.2957 29.1845C23.2957 29.1845 23.5211 29.9694 23.5211 29.9976C23.5211 30.0258 24 30.5798 24 30.5798L24.4883 30.9835L24.9789 31.0806C25.9165 30.6952 26.577 29.7732 26.577 28.6965C26.577 27.6199 25.9166 26.6979 24.9789 26.3125Z" fill="white"/>
<path d="M17.3518 27.2754H16.9764L16.0962 28.4105L15.9811 29.4058L16.0962 30.1194L16.6008 30.833L17.3518 31.0931C18.0442 30.7372 18.5182 30.0163 18.5182 29.1843C18.5182 28.3521 18.0442 27.6312 17.3518 27.2754Z" fill="white"/>
<path d="M16.1853 29.1844C16.1853 28.3523 16.6593 27.6314 17.3518 27.2756C17.0582 27.1247 16.7256 27.0391 16.3728 27.0391C15.188 27.0391 14.2275 27.9996 14.2275 29.1845C14.2275 30.3693 15.188 31.3298 16.3728 31.3298C16.7256 31.3298 17.0582 31.2441 17.3518 31.0933C16.6593 30.7374 16.1853 30.0165 16.1853 29.1844Z" fill="white"/>
<path d="M31.4395 29.1844C31.4395 28.3523 31.9136 27.6314 32.606 27.2756C32.3124 27.1247 31.9799 27.0391 31.6271 27.0391C30.4422 27.0391 29.4817 27.9996 29.4817 29.1845C29.4817 30.3693 30.4422 31.3298 31.6271 31.3298C31.9799 31.3298 32.3124 31.2441 32.606 31.0933C31.9136 30.7374 31.4395 30.0165 31.4395 29.1844Z" fill="white"/>
<path d="M23.3807 28.6962C23.3807 27.6195 24.0412 26.6976 24.9789 26.3121C24.677 26.188 24.3466 26.1191 23.9999 26.1191C22.5767 26.1191 21.4229 27.2729 21.4229 28.6962C21.4229 30.1194 22.5767 31.2732 23.9999 31.2732C24.3466 31.2732 24.677 31.2043 24.9789 31.0802C24.0412 30.6948 23.3807 29.7728 23.3807 28.6962Z" fill="white"/>
<path d="M30.324 36.2587V33.727C30.324 32.4027 31.3976 31.3291 32.7219 31.3291H30.3912C29.3289 31.3291 28.4286 32.0201 28.1136 32.9768L27.9296 33.2832V36.4382L28.3649 36.8582C28.4549 36.9032 28.5561 36.9291 28.6636 36.9291H30.9943C30.6241 36.929 30.324 36.6289 30.324 36.2587Z" fill="white"/>
<path d="M15.1335 36.2587V33.727C15.1335 32.4027 16.207 31.3291 17.5313 31.3291H15.137C13.8126 31.3291 12.7391 32.4027 12.7391 33.727V36.2587C12.7391 36.6289 13.0392 36.929 13.4094 36.929H15.8038C15.4336 36.929 15.1335 36.6289 15.1335 36.2587Z" fill="white"/>
<path d="M25.4846 31.2734H24.1294C23.7772 31.3713 23.4789 31.4529 23.4789 31.4529L22.2724 32.312L21.7747 33.4247V37.636L22.4042 38.0001H27.5597C28.0044 38.0001 28.3649 37.6396 28.3649 37.1948V34.1538C28.3649 32.563 27.0754 31.2734 25.4846 31.2734Z" fill="white"/>
<path d="M22.0294 37.1948V34.1538C22.0294 32.563 23.319 31.2734 24.9098 31.2734H22.5154C20.9246 31.2734 19.6351 32.563 19.6351 34.1538V37.1948C19.6351 37.6396 19.9956 38.0001 20.4403 38.0001H22.8347C22.3899 38 22.0294 37.6395 22.0294 37.1948Z" fill="white"/>
<path d="M20.1787 17.184C20.7325 17.184 21.1814 16.7351 21.1814 16.1814C21.1814 15.6276 20.7325 15.1787 20.1787 15.1787C19.625 15.1787 19.1761 15.6276 19.1761 16.1814C19.1761 16.7351 19.625 17.184 20.1787 17.184Z" fill="#1470F5"/>
<path d="M24 17.184C24.5537 17.184 25.0026 16.7351 25.0026 16.1814C25.0026 15.6276 24.5537 15.1787 24 15.1787C23.4463 15.1787 22.9974 15.6276 22.9974 16.1814C22.9974 16.7351 23.4463 17.184 24 17.184Z" fill="#1470F5"/>
<path d="M27.8213 17.184C28.375 17.184 28.8239 16.7351 28.8239 16.1814C28.8239 15.6276 28.375 15.1787 27.8213 15.1787C27.2675 15.1787 26.8186 15.6276 26.8186 16.1814C26.8186 16.7351 27.2675 17.184 27.8213 17.184Z" fill="#1470F5"/>
</g>
<defs>
<clipPath id="clip0_1880_63612">
<rect width="28" height="28" fill="white" transform="translate(10 10)"/>
</clipPath>
</defs>
</svg>
