<svg width="22" height="22" viewBox="0 0 22 22" fill="none" xmlns="http://www.w3.org/2000/svg">
<path d="M20.1667 5.24722V1.82164C20.1667 1.31472 19.7569 0.904969 19.25 0.904969C18.7431 0.904969 18.3333 1.31472 18.3333 1.82164V4.00239L13.5639 0.783969C12.0065 -0.266531 9.9935 -0.266531 8.43608 0.783969L2.02033 5.1143C0.755333 5.9668 0 7.38672 0 8.91389V17.4169C0 19.9441 2.05608 22.0002 4.58333 22.0002H17.4167C19.9439 22.0002 22 19.9441 22 17.4169V8.91389C22 7.46464 21.318 6.1098 20.1667 5.24722ZM20.1667 17.4169C20.1667 18.9331 18.9328 20.1669 17.4167 20.1669H4.58333C3.06717 20.1669 1.83333 18.9331 1.83333 17.4169V8.91389C1.83333 7.99814 2.28617 7.14564 3.04517 6.63505L9.46183 2.30472C9.92933 1.98847 10.4647 1.8308 11 1.8308C11.5353 1.8308 12.0707 1.98847 12.5382 2.30472L18.9558 6.63505C19.7138 7.14655 20.1667 7.99814 20.1667 8.91389V17.4169Z" fill="#7D848D"/>
</svg>
