<svg width="52" height="52" viewBox="0 0 52 52" fill="none" xmlns="http://www.w3.org/2000/svg">
<g clip-path="url(#clip0_1880_64937)">
<path d="M26 52C40.3594 52 52 40.3594 52 26C52 11.6406 40.3594 0 26 0C11.6406 0 0 11.6406 0 26C0 40.3594 11.6406 52 26 52Z" fill="#8772DF" fill-opacity="0.1"/>
<path d="M30.9528 13.6191H16.0959C15.4394 13.62 14.8101 13.8811 14.3459 14.3453C13.8818 14.8095 13.6206 15.4388 13.6198 16.0953V34.6665C13.6208 35.6512 14.0125 36.5953 14.7088 37.2916C15.4051 37.9879 16.3492 38.3796 17.334 38.3807H32.1909C32.3535 38.3808 32.5146 38.3488 32.6648 38.2866C32.8151 38.2244 32.9516 38.1332 33.0666 38.0183C33.1816 37.9033 33.2727 37.7668 33.3349 37.6165C33.3971 37.4663 33.4291 37.3052 33.429 37.1426V16.0953C33.4281 15.4388 33.167 14.8095 32.7028 14.3453C32.2386 13.8811 31.6093 13.62 30.9528 13.6191ZM19.1911 18.5714H22.9053C23.2337 18.5714 23.5486 18.7019 23.7808 18.9341C24.013 19.1663 24.1434 19.4812 24.1434 19.8095C24.1434 20.1379 24.013 20.4528 23.7808 20.685C23.5486 20.9172 23.2337 21.0476 22.9053 21.0476H19.1911C18.8627 21.0476 18.5478 20.9172 18.3156 20.685C18.0835 20.4528 17.953 20.1379 17.953 19.8095C17.953 19.4812 18.0835 19.1663 18.3156 18.9341C18.5478 18.7019 18.8627 18.5714 19.1911 18.5714ZM27.8576 34.0474H19.1911C18.8627 34.0474 18.5478 33.917 18.3156 33.6848C18.0835 33.4526 17.953 33.1377 17.953 32.8093C17.953 32.481 18.0835 32.1661 18.3156 31.9339C18.5478 31.7017 18.8627 31.5713 19.1911 31.5713H27.8576C28.186 31.5713 28.5009 31.7017 28.7331 31.9339C28.9653 32.1661 29.0957 32.481 29.0957 32.8093C29.0957 33.1377 28.9653 33.4526 28.7331 33.6848C28.5009 33.917 28.186 34.0474 27.8576 34.0474ZM27.8576 29.7141H19.1911C18.8627 29.7141 18.5478 29.5837 18.3156 29.3515C18.0835 29.1193 17.953 28.8044 17.953 28.4761C17.953 28.1477 18.0835 27.8328 18.3156 27.6006C18.5478 27.3684 18.8627 27.238 19.1911 27.238H27.8576C28.186 27.238 28.5009 27.3684 28.7331 27.6006C28.9653 27.8328 29.0957 28.1477 29.0957 28.4761C29.0957 28.8044 28.9653 29.1193 28.7331 29.3515C28.5009 29.5837 28.186 29.7141 27.8576 29.7141ZM27.8576 25.3809H19.1911C18.8627 25.3809 18.5478 25.2504 18.3156 25.0182C18.0835 24.7861 17.953 24.4712 17.953 24.1428C17.953 23.8144 18.0835 23.4995 18.3156 23.2673C18.5478 23.0352 18.8627 22.9047 19.1911 22.9047H27.8576C28.186 22.9047 28.5009 23.0352 28.7331 23.2673C28.9653 23.4995 29.0957 23.8144 29.0957 24.1428C29.0957 24.4712 28.9653 24.7861 28.7331 25.0182C28.5009 25.2504 28.186 25.3809 27.8576 25.3809Z" fill="#8772DF"/>
<path d="M34.6652 38.3804H32.189C32.0264 38.3805 31.8654 38.3486 31.7151 38.2864C31.5649 38.2242 31.4284 38.133 31.3134 38.018C31.1984 37.903 31.1072 37.7665 31.045 37.6163C30.9828 37.466 30.9509 37.305 30.951 37.1424V22.2854C30.9509 22.1228 30.9828 21.9618 31.045 21.8115C31.1072 21.6613 31.1984 21.5248 31.3134 21.4098C31.4284 21.2948 31.5649 21.2036 31.7151 21.1414C31.8654 21.0792 32.0264 21.0473 32.189 21.0474H37.1413C37.304 21.0473 37.465 21.0792 37.6152 21.1414C37.7655 21.2036 37.902 21.2948 38.017 21.4098C38.132 21.5248 38.2232 21.6613 38.2854 21.8115C38.3476 21.9618 38.3795 22.1228 38.3794 22.2854V34.6662C38.3783 35.651 37.9867 36.5951 37.2904 37.2914C36.594 37.9877 35.6499 38.3794 34.6652 38.3804ZM33.4271 35.9043H34.6652C34.9935 35.9041 35.3083 35.7736 35.5404 35.5414C35.7725 35.3093 35.903 34.9945 35.9033 34.6662V23.5235H33.4271V35.9043Z" fill="#8772DF"/>
</g>
<defs>
<clipPath id="clip0_1880_64937">
<rect width="52" height="52" fill="white"/>
</clipPath>
</defs>
</svg>
