<svg width="41" height="42" viewBox="0 0 41 42" fill="none" xmlns="http://www.w3.org/2000/svg">
<path d="M40.7917 16.8334C40.7929 15.8941 40.5401 14.9719 40.06 14.1646C39.5799 13.3572 38.8905 12.6947 38.0646 12.2472C37.2388 11.7997 36.3073 11.5839 35.3688 11.6226C34.4303 11.6613 33.5197 11.9531 32.7335 12.467C31.9473 12.981 31.3147 13.698 30.9027 14.5421C30.4907 15.3863 30.3147 16.3261 30.3932 17.2621C30.4718 18.1981 30.802 19.0955 31.3489 19.8591C31.8959 20.6228 32.6391 21.2243 33.5 21.6V28.2917C33.5 30.7781 32.5123 33.1627 30.7541 34.9208C28.996 36.679 26.6114 37.6667 24.125 37.6667C21.6386 37.6667 19.254 36.679 17.4959 34.9208C15.7377 33.1627 14.75 30.7781 14.75 28.2917V27.0917C17.725 26.7328 20.4536 25.2601 22.3863 22.9702C24.3191 20.6802 25.3126 17.7431 25.1667 14.75V5.37504C25.2233 4.6767 25.1275 3.9744 24.8858 3.31678C24.644 2.65916 24.2623 2.06195 23.7668 1.56653C23.2714 1.07111 22.6742 0.689318 22.0166 0.447609C21.359 0.205901 20.6567 0.110053 19.9583 0.166707H18.9167C18.3641 0.166707 17.8342 0.3862 17.4435 0.776901C17.0528 1.1676 16.8333 1.69751 16.8333 2.25004C16.8333 2.80257 17.0528 3.33248 17.4435 3.72318C17.8342 4.11388 18.3641 4.33337 18.9167 4.33337H19.9583C20.8917 4.33337 21 4.43962 21 5.37504V14.75C21.0778 15.8644 20.9156 16.9825 20.5244 18.0289C20.1331 19.0752 19.5219 20.0254 18.732 20.8153C17.942 21.6052 16.9918 22.2165 15.9455 22.6077C14.8992 22.999 13.781 23.1612 12.6667 23.0834C11.5523 23.1612 10.4342 22.999 9.38782 22.6077C8.34148 22.2165 7.39127 21.6052 6.60136 20.8153C5.81145 20.0254 5.20023 19.0752 4.80897 18.0289C4.4177 16.9825 4.2555 15.8644 4.33333 14.75V5.37504C4.33333 4.43962 4.44166 4.33337 5.37499 4.33337H6.41666C6.9692 4.33337 7.4991 4.11388 7.8898 3.72318C8.2805 3.33248 8.49999 2.80257 8.49999 2.25004C8.49999 1.69751 8.2805 1.1676 7.8898 0.776901C7.4991 0.3862 6.9692 0.166707 6.41666 0.166707H5.37499C4.67666 0.110053 3.97435 0.205901 3.31673 0.447609C2.65911 0.689318 2.06191 1.07111 1.56648 1.56653C1.07106 2.06195 0.689272 2.65916 0.447564 3.31678C0.205855 3.9744 0.110007 4.6767 0.166661 5.37504V14.75C0.0207597 17.7431 1.0142 20.6802 2.94698 22.9702C4.87975 25.2601 7.60832 26.7328 10.5833 27.0917V28.2917C10.5833 31.8832 12.01 35.3276 14.5496 37.8671C17.0891 40.4067 20.5335 41.8334 24.125 41.8334C27.7165 41.8334 31.1608 40.4067 33.7004 37.8671C36.2399 35.3276 37.6667 31.8832 37.6667 28.2917V21.6C38.5944 21.1951 39.3841 20.5287 39.9391 19.6821C40.494 18.8356 40.7903 17.8456 40.7917 16.8334Z" fill="#FF0028"/>
</svg>
