<svg width="42" height="38" viewBox="0 0 42 38" fill="none" xmlns="http://www.w3.org/2000/svg">
<path d="M36.0895 0H5.91046C4.34429 -1.44649e-06 2.84216 0.624352 1.73396 1.73593C0.625769 2.84751 0.0021239 4.35543 0 5.92851V25.9473C0.000276783 27.2877 0.452047 28.5886 1.28184 29.6384C2.11162 30.6882 3.27061 31.4251 4.5703 31.7293C4.35538 32.2813 4.10587 32.8191 3.82328 33.3394C3.47553 33.9761 3.08508 34.5883 2.65466 35.1718C2.49435 35.3923 2.35809 35.555 2.27153 35.6548C2.22504 35.7144 2.19458 35.7482 2.17053 35.7739L2.14649 35.7997C1.97522 35.9932 1.86428 36.2329 1.82744 36.4891C1.7906 36.7454 1.82948 37.0068 1.93926 37.2411C2.04903 37.4753 2.22487 37.672 2.44495 37.8068C2.66503 37.9416 2.91967 38.0084 3.17725 37.9991C5.52893 37.8977 7.86137 37.0556 9.79626 36.1233C11.9347 35.0945 13.7398 33.1333 14.926 31.8774H36.0863C37.6533 31.8783 39.1565 31.2541 40.2655 30.1421C41.3744 29.03 41.9983 27.5212 42 25.9473V5.92851C41.9979 4.35543 41.3742 2.84751 40.266 1.73593C39.1578 0.624352 37.6557 -1.44649e-06 36.0895 0Z" fill="#1470F5"/>
</svg>
