<svg width="39" height="39" viewBox="0 0 39 39" fill="none" xmlns="http://www.w3.org/2000/svg">
<path d="M22.0581 16.0429C20.5083 16.0429 19.25 17.2989 19.25 18.8509V35.6946C19.25 37.2443 20.506 38.5003 22.0581 38.5003H35.6942C37.2439 38.5003 38.4999 37.2443 38.4999 35.6923V18.9279C38.4999 17.3324 37.2075 16.0405 35.6125 16.0405H22.0581V16.0429ZM32.2846 32.0829H25.0659C24.402 32.0829 23.8627 31.5436 23.8627 30.8798C23.8627 30.2154 24.402 29.6767 25.0659 29.6767H32.2846C32.949 29.6767 33.4877 30.2154 33.4877 30.8798C33.4877 31.5436 32.949 32.0829 32.2846 32.0829ZM32.2846 27.2704H25.0659C24.402 27.2704 23.8627 26.7311 23.8627 26.0673C23.8627 25.4029 24.402 24.8642 25.0659 24.8642H32.2846C32.949 24.8642 33.4877 25.4029 33.4877 26.0673C33.4877 26.7311 32.949 27.2704 32.2846 27.2704Z" fill="#FFC133"/>
<path d="M22.8593 4.81248H20.8548V4.41065C20.8548 3.74624 20.3161 3.20753 19.6517 3.20753H17.8805C17.3536 1.35938 15.6523 0 13.6361 0C11.62 0 9.91633 1.35938 9.39173 3.20753H7.62054C6.95671 3.20753 6.41742 3.74624 6.41742 4.41065V4.81248H4.41065C1.97798 4.81248 0 6.79046 0 9.22313V29.2743C0 31.7094 1.97798 33.6873 4.41065 33.6873H16.8437V18.8481C16.8437 15.9725 19.1823 13.6338 22.058 13.6338H27.2723V9.22313C27.2699 6.79046 25.2919 4.81248 22.8593 4.81248ZM8.82366 5.61377H10.4286C11.093 5.61377 11.6317 5.07448 11.6317 4.41065C11.6317 3.30388 12.5317 2.40624 13.6361 2.40624C14.7429 2.40624 15.6405 3.30623 15.6405 4.41065C15.6405 5.07448 16.1798 5.61377 16.8437 5.61377H18.4486V7.61819C18.4486 7.83966 18.2683 8.02001 18.0468 8.02001H9.22313C9.00166 8.02001 8.82131 7.83966 8.82131 7.61819V5.61377H8.82366Z" fill="#FFC133"/>
</svg>
