<svg width="36" height="36" viewBox="0 0 36 36" fill="none" xmlns="http://www.w3.org/2000/svg">
<g clip-path="url(#clip0_1004_26396)">
<rect width="36" height="36" rx="18" fill="#E8F1FD"/>
<path d="M24.1656 14.0437H23.8143V17.3849C23.8143 19.0339 22.4734 20.3737 20.8255 20.3737H12.5616V21.9562C12.5616 23.0228 13.4289 23.89 14.4955 23.89H15.3743V25.4725C15.3743 25.6898 15.5072 25.885 15.7108 25.9641C15.7731 25.9884 15.8374 26 15.9018 26C16.0463 26 16.1887 25.9399 16.29 25.8291L18.0677 23.89H24.1656C25.2322 23.89 26.0994 23.0228 26.0994 21.9562V15.9775C26.0994 14.912 25.2322 14.0437 24.1656 14.0437Z" fill="#24215B"/>
<rect x="9" y="10" width="13.3633" height="9.14333" rx="1.45508" fill="#1470F5"/>
</g>
<defs>
<clipPath id="clip0_1004_26396">
<rect width="36" height="36" fill="white"/>
</clipPath>
</defs>
</svg>
