<svg width="42" height="32" viewBox="0 0 42 32" fill="none" xmlns="http://www.w3.org/2000/svg">
<path d="M35.5833 0.417209H14.75C13.901 0.29608 13.0355 0.374238 12.222 0.645496C11.4085 0.916753 10.6692 1.37366 10.0628 1.98005C9.45645 2.58644 8.99954 3.32566 8.72828 4.1392C8.45703 4.95273 8.37887 5.81824 8.5 6.66721V27.5005C8.5 28.6056 8.06101 29.6654 7.27961 30.4468C6.49821 31.2282 5.4384 31.6672 4.33333 31.6672H35.5833C36.4323 31.7883 37.2978 31.7102 38.1113 31.4389C38.9249 31.1677 39.6641 30.7108 40.2705 30.1044C40.8769 29.498 41.3338 28.7588 41.605 27.9452C41.8763 27.1317 41.9545 26.2662 41.8333 25.4172V6.66721C41.9545 5.81824 41.8763 4.95273 41.605 4.1392C41.3338 3.32566 40.8769 2.58644 40.2705 1.98005C39.6641 1.37366 38.9249 0.916753 38.1113 0.645496C37.2978 0.374238 36.4323 0.29608 35.5833 0.417209ZM25.1667 22.4526C25.2039 22.7138 25.1798 22.9801 25.0964 23.2304C25.0129 23.4807 24.8723 23.7081 24.6858 23.8946C24.4992 24.0812 24.2718 24.2218 24.0215 24.3052C23.7712 24.3887 23.5049 24.4128 23.2437 24.3755H16.6729C16.4117 24.4128 16.1454 24.3887 15.8952 24.3052C15.6449 24.2218 15.4175 24.0812 15.2309 23.8946C15.0443 23.7081 14.9038 23.4807 14.8203 23.2304C14.7368 22.9801 14.7128 22.7138 14.75 22.4526V17.9651C14.7128 17.7039 14.7368 17.4377 14.8203 17.1874C14.9038 16.9371 15.0443 16.7097 15.2309 16.5231C15.4175 16.3366 15.6449 16.196 15.8952 16.1125C16.1454 16.029 16.4117 16.005 16.6729 16.0422H23.2437C23.5049 16.005 23.7712 16.029 24.0215 16.1125C24.2718 16.196 24.4992 16.3366 24.6858 16.5231C24.8723 16.7097 25.0129 16.9371 25.0964 17.1874C25.1798 17.4377 25.2039 17.7039 25.1667 17.9651V22.4526ZM35.5833 24.8964H31.4167C31.0023 24.8964 30.6048 24.7318 30.3118 24.4387C30.0188 24.1457 29.8542 23.7483 29.8542 23.3339C29.8542 22.9195 30.0188 22.522 30.3118 22.229C30.6048 21.936 31.0023 21.7714 31.4167 21.7714H35.5833C35.9977 21.7714 36.3952 21.936 36.6882 22.229C36.9812 22.522 37.1458 22.9195 37.1458 23.3339C37.1458 23.7483 36.9812 24.1457 36.6882 24.4387C36.3952 24.7318 35.9977 24.8964 35.5833 24.8964ZM35.5833 18.6464H31.4167C31.0023 18.6464 30.6048 18.4818 30.3118 18.1887C30.0188 17.8957 29.8542 17.4983 29.8542 17.0839C29.8542 16.6695 30.0188 16.272 30.3118 15.979C30.6048 15.686 31.0023 15.5214 31.4167 15.5214H35.5833C35.9977 15.5214 36.3952 15.686 36.6882 15.979C36.9812 16.272 37.1458 16.6695 37.1458 17.0839C37.1458 17.4983 36.9812 17.8957 36.6882 18.1887C36.3952 18.4818 35.9977 18.6464 35.5833 18.6464ZM35.5833 10.313H16.3125C15.8981 10.313 15.5007 10.1484 15.2076 9.8554C14.9146 9.56237 14.75 9.16494 14.75 8.75054C14.75 8.33614 14.9146 7.93871 15.2076 7.64569C15.5007 7.35266 15.8981 7.18804 16.3125 7.18804H35.5833C35.9977 7.18804 36.3952 7.35266 36.6882 7.64569C36.9812 7.93871 37.1458 8.33614 37.1458 8.75054C37.1458 9.16494 36.9812 9.56237 36.6882 9.8554C36.3952 10.1484 35.9977 10.313 35.5833 10.313ZM2.77291 28.5422C2.4305 28.5428 2.09135 28.4757 1.7749 28.3449C1.45844 28.2142 1.17092 28.0222 0.928793 27.7801C0.686671 27.538 0.494717 27.2504 0.363935 26.934C0.233153 26.6175 0.166115 26.2784 0.166664 25.936V12.9172C0.169961 11.8132 0.610007 10.7553 1.39069 9.97457C2.17138 9.19389 3.22928 8.75384 4.33333 8.75054H5.375V25.936C5.37527 26.2779 5.30818 26.6166 5.17756 26.9327C5.04695 27.2487 4.85535 27.536 4.61373 27.778C4.3721 28.02 4.08517 28.2121 3.76933 28.3432C3.45348 28.4743 3.1149 28.5419 2.77291 28.5422Z" fill="#F04A7C"/>
</svg>
