<svg width="42" height="38" viewBox="0 0 42 38" fill="none" xmlns="http://www.w3.org/2000/svg">
<path d="M23.0833 10.7707V27.2291C23.0833 27.3948 23.0175 27.5538 22.9003 27.671C22.7831 27.7882 22.6241 27.8541 22.4583 27.8541H13.2917C13.2096 27.8541 13.1283 27.8379 13.0525 27.8065C12.9767 27.7751 12.9078 27.729 12.8497 27.671C12.7917 27.613 12.7456 27.5441 12.7142 27.4682C12.6828 27.3924 12.6667 27.3111 12.6667 27.2291V10.7707C12.6667 10.605 12.7325 10.446 12.8497 10.3288C12.9669 10.2116 13.1259 10.1457 13.2917 10.1457H22.4583C22.6241 10.1457 22.7831 10.2116 22.9003 10.3288C23.0175 10.446 23.0833 10.605 23.0833 10.7707ZM9.95833 10.1457H0.791666C0.625905 10.1457 0.466934 10.2116 0.349724 10.3288C0.232514 10.446 0.166666 10.605 0.166666 10.7707V27.2291C0.166666 27.3948 0.232514 27.5538 0.349724 27.671C0.466934 27.7882 0.625905 27.8541 0.791666 27.8541H9.95833C10.0404 27.8541 10.1217 27.8379 10.1975 27.8065C10.2733 27.7751 10.3422 27.729 10.4003 27.671C10.4583 27.613 10.5043 27.5441 10.5358 27.4682C10.5672 27.3924 10.5833 27.3111 10.5833 27.2291V10.7707C10.5833 10.605 10.5175 10.446 10.4003 10.3288C10.2831 10.2116 10.1241 10.1457 9.95833 10.1457ZM35.8896 5.66657L35.2646 2.7499C35.2331 2.32536 35.1039 1.91385 34.8871 1.54749C34.6702 1.18113 34.3717 0.86983 34.0147 0.637896C33.6578 0.405961 33.252 0.259667 32.8292 0.210432C32.4063 0.161198 31.9778 0.210356 31.5771 0.354068L27.5354 1.22907C27.1115 1.25698 26.6999 1.3831 26.3331 1.59746C25.9663 1.81182 25.6544 2.10855 25.422 2.4642C25.1896 2.81985 25.0431 3.22467 24.9941 3.64667C24.9451 4.06867 24.9949 4.49629 25.1396 4.89573L25.7646 7.8249C25.7817 7.90521 25.8144 7.98137 25.8609 8.04902C25.9074 8.11667 25.9668 8.1745 26.0357 8.21919C26.1046 8.26388 26.1816 8.29456 26.2623 8.30949C26.3431 8.32441 26.4259 8.32327 26.5062 8.30615L35.4083 6.40199C35.5692 6.36743 35.71 6.27083 35.8001 6.13315C35.8902 5.99547 35.9223 5.82782 35.8896 5.66657ZM40.1833 25.8957L36.7979 9.94573C36.7808 9.86521 36.748 9.78885 36.7014 9.72104C36.6547 9.65323 36.5951 9.5953 36.526 9.55058C36.4569 9.50587 36.3797 9.47524 36.2987 9.46047C36.2177 9.44569 36.1346 9.44706 36.0542 9.46448L27.1521 11.3687C26.9903 11.4036 26.8489 11.5013 26.7591 11.6404C26.6693 11.7794 26.6383 11.9484 26.6729 12.1103L30.0771 28.0541C30.0942 28.1344 30.1269 28.2105 30.1734 28.2782C30.2199 28.3458 30.2793 28.4037 30.3482 28.4484C30.4171 28.493 30.4941 28.5237 30.5748 28.5387C30.6556 28.5536 30.7384 28.5524 30.8187 28.5353L39.7021 26.6312C39.7824 26.6141 39.8585 26.5813 39.9262 26.5348C39.9939 26.4883 40.0517 26.4289 40.0964 26.36C40.1411 26.2912 40.1717 26.2141 40.1867 26.1334C40.2016 26.0527 40.2005 25.9698 40.1833 25.8895V25.8957ZM41.7083 33.1103L41.0833 30.1812C41.0662 30.1008 41.0335 30.0247 40.987 29.957C40.9405 29.8894 40.8811 29.8316 40.8122 29.7869C40.7433 29.7422 40.6663 29.7115 40.5856 29.6966C40.5048 29.6816 40.422 29.6828 40.3417 29.6999L31.4604 31.6041C31.3801 31.6211 31.3039 31.6539 31.2363 31.7004C31.1686 31.7469 31.1108 31.8063 31.0661 31.8752C31.0214 31.9441 30.9908 32.0211 30.9758 32.1018C30.9609 32.1826 30.962 32.2654 30.9792 32.3457L31.6042 35.2624C31.6333 35.6858 31.7602 36.0967 31.9749 36.4628C32.1896 36.8289 32.4863 37.1402 32.8416 37.3724C33.1968 37.6045 33.6011 37.7511 34.0226 37.8007C34.4441 37.8503 34.8714 37.8016 35.2708 37.6582L39.3333 36.7832C39.7596 36.7593 40.1742 36.635 40.5433 36.4203C40.9124 36.2056 41.2255 35.9067 41.457 35.548C41.6886 35.1893 41.8321 34.7809 41.8757 34.3562C41.9194 33.9314 41.8621 33.5024 41.7083 33.1041V33.1103ZM19.9583 0.249901H15.7917C15.3672 0.189337 14.9344 0.228416 14.5277 0.364045C14.1209 0.499673 13.7513 0.728127 13.4481 1.03132C13.1449 1.33452 12.9164 1.70413 12.7808 2.1109C12.6452 2.51766 12.6061 2.95042 12.6667 3.3749V6.39573C12.6667 6.56149 12.7325 6.72047 12.8497 6.83768C12.9669 6.95489 13.1259 7.02074 13.2917 7.02074H22.4583C22.6241 7.02074 22.7831 6.95489 22.9003 6.83768C23.0175 6.72047 23.0833 6.56149 23.0833 6.39573V3.3749C23.1439 2.95042 23.1048 2.51766 22.9692 2.1109C22.8336 1.70413 22.6051 1.33452 22.3019 1.03132C21.9987 0.728127 21.6291 0.499673 21.2223 0.364045C20.8156 0.228416 20.3828 0.189337 19.9583 0.249901ZM7.45833 0.249901H3.29167C2.86718 0.189337 2.43443 0.228416 2.02766 0.364045C1.62089 0.499673 1.25128 0.728127 0.948087 1.03132C0.644892 1.33452 0.416438 1.70413 0.280809 2.1109C0.14518 2.51766 0.106101 2.95042 0.166666 3.3749V6.39573C0.166666 6.56149 0.232514 6.72047 0.349724 6.83768C0.466934 6.95489 0.625905 7.02074 0.791666 7.02074H9.95833C10.1241 7.02074 10.2831 6.95489 10.4003 6.83768C10.5175 6.72047 10.5833 6.56149 10.5833 6.39573V3.3749C10.6439 2.95042 10.6048 2.51766 10.4692 2.1109C10.3336 1.70413 10.1051 1.33452 9.80191 1.03132C9.49872 0.728127 9.1291 0.499673 8.72234 0.364045C8.31557 0.228416 7.88282 0.189337 7.45833 0.249901ZM9.95833 30.9791H0.791666C0.625905 30.9791 0.466934 31.0449 0.349724 31.1621C0.232514 31.2793 0.166666 31.4383 0.166666 31.6041V34.6249C0.106101 35.0494 0.14518 35.4821 0.280809 35.8889C0.416438 36.2957 0.644892 36.6653 0.948087 36.9685C1.25128 37.2717 1.62089 37.5001 2.02766 37.6358C2.43443 37.7714 2.86718 37.8105 3.29167 37.7499H7.45833C7.88282 37.8105 8.31557 37.7714 8.72234 37.6358C9.1291 37.5001 9.49872 37.2717 9.80191 36.9685C10.1051 36.6653 10.3336 36.2957 10.4692 35.8889C10.6048 35.4821 10.6439 35.0494 10.5833 34.6249V31.6041C10.5833 31.4383 10.5175 31.2793 10.4003 31.1621C10.2831 31.0449 10.1241 30.9791 9.95833 30.9791ZM22.4583 30.9791H13.2917C13.1259 30.9791 12.9669 31.0449 12.8497 31.1621C12.7325 31.2793 12.6667 31.4383 12.6667 31.6041V34.6249C12.6061 35.0494 12.6452 35.4821 12.7808 35.8889C12.9164 36.2957 13.1449 36.6653 13.4481 36.9685C13.7513 37.2717 14.1209 37.5001 14.5277 37.6358C14.9344 37.7714 15.3672 37.8105 15.7917 37.7499H19.9583C20.3828 37.8105 20.8156 37.7714 21.2223 37.6358C21.6291 37.5001 21.9987 37.2717 22.3019 36.9685C22.6051 36.6653 22.8336 36.2957 22.9692 35.8889C23.1048 35.4821 23.1439 35.0494 23.0833 34.6249V31.6041C23.0833 31.4383 23.0175 31.2793 22.9003 31.1621C22.7831 31.0449 22.6241 30.9791 22.4583 30.9791Z" fill="#8772DF"/>
</svg>
