<svg width="46" height="40" viewBox="0 0 46 40" fill="none" xmlns="http://www.w3.org/2000/svg">
<path d="M43.8333 36.1877H42.7917V16.9169C42.8687 16.4097 42.8363 15.8919 42.6968 15.3983C42.5573 14.9047 42.3139 14.4466 41.9828 14.0547C41.6517 13.6629 41.2407 13.3464 40.7773 13.1264C40.3138 12.9064 39.8087 12.7881 39.2958 12.7794C39.21 12.7731 39.1238 12.7846 39.0426 12.8131C38.9614 12.8417 38.8869 12.8867 38.824 12.9454C38.761 13.0041 38.7108 13.0751 38.6766 13.1541C38.6423 13.2331 38.6248 13.3183 38.625 13.4044V36.1877H35.5V6.50022C35.6211 5.65125 35.543 4.78574 35.2717 3.97221C35.0005 3.15867 34.5436 2.41945 33.9372 1.81306C33.3308 1.20667 32.5915 0.749761 31.778 0.478503C30.9645 0.207246 30.099 0.129088 29.25 0.250217H16.75C15.901 0.129088 15.0355 0.207246 14.222 0.478503C13.4085 0.749761 12.6692 1.20667 12.0628 1.81306C11.4565 2.41945 10.9995 3.15867 10.7283 3.97221C10.457 4.78574 10.3789 5.65125 10.5 6.50022V36.1877H7.375V13.4127C7.37523 13.3266 7.35768 13.2414 7.32344 13.1625C7.28921 13.0835 7.23903 13.0124 7.17605 12.9537C7.11307 12.8951 7.03864 12.85 6.95744 12.8215C6.87624 12.7929 6.79001 12.7814 6.70417 12.7877C6.19208 12.7966 5.6878 12.9148 5.22503 13.1342C4.76227 13.3537 4.3517 13.6694 4.02076 14.0603C3.68983 14.4512 3.44616 14.9082 3.30605 15.4009C3.16595 15.8935 3.13263 16.4103 3.20833 16.9169V36.1877H2.16667C1.75227 36.1877 1.35484 36.3523 1.06181 36.6454C0.768786 36.9384 0.604166 37.3358 0.604166 37.7502C0.604166 38.1646 0.768786 38.562 1.06181 38.8551C1.35484 39.1481 1.75227 39.3127 2.16667 39.3127H43.8333C44.2477 39.3127 44.6452 39.1481 44.9382 38.8551C45.2312 38.562 45.3958 38.1646 45.3958 37.7502C45.3958 37.3358 45.2312 36.9384 44.9382 36.6454C44.6452 36.3523 44.2477 36.1877 43.8333 36.1877ZM18.3125 8.58355C18.3125 8.16915 18.4771 7.77172 18.7701 7.4787C19.0632 7.18567 19.4606 7.02105 19.875 7.02105C20.2894 7.02105 20.6868 7.18567 20.9799 7.4787C21.2729 7.77172 21.4375 8.16915 21.4375 8.58355V11.1877H24.5625V8.58355C24.5625 8.16915 24.7271 7.77172 25.0201 7.4787C25.3132 7.18567 25.7106 7.02105 26.125 7.02105C26.5394 7.02105 26.9368 7.18567 27.2299 7.4787C27.5229 7.77172 27.6875 8.16915 27.6875 8.58355V16.9169C27.6875 17.3313 27.5229 17.7287 27.2299 18.0217C26.9368 18.3148 26.5394 18.4794 26.125 18.4794C25.7106 18.4794 25.3132 18.3148 25.0201 18.0217C24.7271 17.7287 24.5625 17.3313 24.5625 16.9169V14.3127H21.4375V16.9169C21.4375 17.3313 21.2729 17.7287 20.9799 18.0217C20.6868 18.3148 20.2894 18.4794 19.875 18.4794C19.4606 18.4794 19.0632 18.3148 18.7701 18.0217C18.4771 17.7287 18.3125 17.3313 18.3125 16.9169V8.58355ZM18.8333 29.4169C18.8333 28.3118 19.2723 27.252 20.0537 26.4706C20.8351 25.6892 21.8949 25.2502 23 25.2502C24.1051 25.2502 25.1649 25.6892 25.9463 26.4706C26.7277 27.252 27.1667 28.3118 27.1667 29.4169V36.1877H18.8333V29.4169Z" fill="#B26B4B"/>
</svg>
