<svg width="38" height="38" viewBox="0 0 38 38" fill="none" xmlns="http://www.w3.org/2000/svg">
<path d="M35.6667 23.6877H33.5833V14.3127H35.6667C36.0811 14.3127 36.4785 14.1481 36.7715 13.8551C37.0646 13.562 37.2292 13.1646 37.2292 12.7502C37.2292 12.3358 37.0646 11.9384 36.7715 11.6454C36.4785 11.3523 36.0811 11.1877 35.6667 11.1877H33.5833V6.50022C33.7045 5.65125 33.6263 4.78574 33.3551 3.97221C33.0838 3.15867 32.6269 2.41945 32.0205 1.81306C31.4141 1.20667 30.6749 0.749761 29.8614 0.478503C29.0478 0.207246 28.1823 0.129088 27.3333 0.250217H6.5C5.65104 0.129088 4.78553 0.207246 3.97199 0.478503C3.15846 0.749761 2.41924 1.20667 1.81285 1.81306C1.20646 2.41945 0.749547 3.15867 0.47829 3.97221C0.207032 4.78574 0.128874 5.65125 0.250003 6.50022V31.5002C0.128874 32.3492 0.207032 33.2147 0.47829 34.0282C0.749547 34.8418 1.20646 35.581 1.81285 36.1874C2.41924 36.7938 3.15846 37.2507 3.97199 37.5219C4.78553 37.7932 5.65104 37.8713 6.5 37.7502H27.3333C28.1823 37.8713 29.0478 37.7932 29.8614 37.5219C30.6749 37.2507 31.4141 36.7938 32.0205 36.1874C32.6269 35.581 33.0838 34.8418 33.3551 34.0282C33.6263 33.2147 33.7045 32.3492 33.5833 31.5002V26.8127H35.6667C36.0811 26.8127 36.4785 26.6481 36.7715 26.3551C37.0646 26.062 37.2292 25.6646 37.2292 25.2502C37.2292 24.8358 37.0646 24.4384 36.7715 24.1454C36.4785 23.8523 36.0811 23.6877 35.6667 23.6877ZM16.9167 7.54188C17.9468 7.54188 18.9538 7.84735 19.8103 8.41965C20.6668 8.99195 21.3343 9.80538 21.7285 10.7571C22.1228 11.7088 22.2259 12.756 22.0249 13.7663C21.824 14.7766 21.3279 15.7047 20.5995 16.4331C19.8711 17.1615 18.9431 17.6575 17.9328 17.8585C16.9224 18.0594 15.8752 17.9563 14.9235 17.5621C13.9718 17.1679 13.1584 16.5003 12.5861 15.6438C12.0138 14.7873 11.7083 13.7803 11.7083 12.7502C11.7083 11.3689 12.2571 10.0441 13.2338 9.06737C14.2106 8.09062 15.5353 7.54188 16.9167 7.54188ZM26.2917 29.4169C26.2917 29.6932 26.1819 29.9581 25.9866 30.1535C25.7912 30.3488 25.5263 30.4586 25.25 30.4586H8.58334C8.30707 30.4586 8.04212 30.3488 7.84677 30.1535C7.65142 29.9581 7.54167 29.6932 7.54167 29.4169V28.0836C7.54699 27.1157 7.75131 26.1592 8.14194 25.2737C8.53257 24.3881 9.10116 23.5923 9.81237 22.9358C10.5236 22.2793 11.3622 21.7761 12.2762 21.4575C13.1901 21.1388 14.1598 21.0115 15.125 21.0836H18.7083C19.6735 21.0115 20.6433 21.1388 21.5572 21.4575C22.4711 21.7761 23.3098 22.2793 24.021 22.9358C24.7322 23.5923 25.3008 24.3881 25.6914 25.2737C26.082 26.1592 26.2864 27.1157 26.2917 28.0836V29.4169Z" fill="#4CAF50"/>
</svg>
