<svg width="22" height="24" viewBox="0 0 22 24" fill="none" xmlns="http://www.w3.org/2000/svg">
<g clip-path="url(#clip0_1005_28012)">
<rect x="1.09998" y="1.09082" width="19.8" height="21.8182" rx="1.1" fill="#1470F5"/>
<path d="M15.4 11.7271H6.60005C5.53855 11.7271 4.67505 10.8708 4.67505 9.81805V6.54532C4.67505 5.49259 5.53855 4.63623 6.60005 4.63623H15.4C16.4615 4.63623 17.325 5.49259 17.325 6.54532V9.81805C17.325 10.8708 16.4615 11.7271 15.4 11.7271ZM6.60005 6.27259C6.44825 6.27259 6.32505 6.39478 6.32505 6.54532V9.81805C6.32505 9.96859 6.44825 10.0908 6.60005 10.0908H15.4C15.5518 10.0908 15.675 9.96859 15.675 9.81805V6.54532C15.675 6.39478 15.5518 6.27259 15.4 6.27259H6.60005Z" fill="white"/>
<path d="M18.5429 24H3.45714C1.55006 24 0 22.4825 0 20.6154V3.38462C0 1.51754 1.55006 0 3.45714 0H18.5429C20.4499 0 22 1.51754 22 3.38462V20.6154C22 22.4825 20.4499 24 18.5429 24ZM3.45714 1.84615C2.59097 1.84615 1.88571 2.53662 1.88571 3.38462V20.6154C1.88571 21.4634 2.59097 22.1538 3.45714 22.1538H18.5429C19.409 22.1538 20.1143 21.4634 20.1143 20.6154V3.38462C20.1143 2.53662 19.409 1.84615 18.5429 1.84615H3.45714ZM18.2286 14.4615C18.2286 13.952 17.8062 13.5385 17.2857 13.5385H4.71429C4.19383 13.5385 3.77143 13.952 3.77143 14.4615C3.77143 14.9711 4.19383 15.3846 4.71429 15.3846H17.2857C17.8062 15.3846 18.2286 14.9711 18.2286 14.4615ZM13.2 18.1538C13.2 17.6443 12.7776 17.2308 12.2571 17.2308H4.71429C4.19383 17.2308 3.77143 17.6443 3.77143 18.1538C3.77143 18.6634 4.19383 19.0769 4.71429 19.0769H12.2571C12.7776 19.0769 13.2 18.6634 13.2 18.1538Z" fill="#1470F5"/>
<path d="M17.2858 13.5386C17.8062 13.5386 18.2286 13.9521 18.2286 14.4617C18.2286 14.9712 17.8062 15.3847 17.2858 15.3847H4.71434C4.19388 15.3847 3.77148 14.9712 3.77148 14.4617C3.77148 13.9521 4.19388 13.5386 4.71434 13.5386H17.2858Z" fill="white"/>
<path d="M12.2572 17.231C12.7777 17.231 13.2001 17.6445 13.2001 18.154C13.2001 18.6636 12.7777 19.0771 12.2572 19.0771H4.71434C4.19388 19.0771 3.77148 18.6636 3.77148 18.154C3.77148 17.6445 4.19388 17.231 4.71434 17.231H12.2572Z" fill="white"/>
</g>
<defs>
<clipPath id="clip0_1005_28012">
<rect width="22" height="24" fill="white"/>
</clipPath>
</defs>
</svg>
