<svg width="20" height="22" viewBox="0 0 20 22" fill="none" xmlns="http://www.w3.org/2000/svg">
<path d="M13.9095 11.0002H6.25729C5.33424 11.0002 4.58337 10.2252 4.58337 9.2726V6.31106C4.58337 5.35843 5.33424 4.5835 6.25729 4.5835H13.9095C14.8325 4.5835 15.5834 5.35843 15.5834 6.31106V9.2726C15.5834 10.2252 14.8325 11.0002 13.9095 11.0002ZM6.25729 6.06427C6.12529 6.06427 6.01816 6.17483 6.01816 6.31106V9.2726C6.01816 9.40883 6.12529 9.51939 6.25729 9.51939H13.9095C14.0415 9.51939 14.1486 9.40883 14.1486 9.2726V6.31106C14.1486 6.17483 14.0415 6.06427 13.9095 6.06427H6.25729Z" fill="#7D848D"/>
<path d="M16.9976 22H3.16905C1.42089 22 0 20.6089 0 18.8974V3.10256C0 1.39108 1.42089 0 3.16905 0H16.9976C18.7458 0 20.1667 1.39108 20.1667 3.10256V18.8974C20.1667 20.6089 18.7458 22 16.9976 22ZM3.16905 1.69231C2.37506 1.69231 1.72857 2.32523 1.72857 3.10256V18.8974C1.72857 19.6748 2.37506 20.3077 3.16905 20.3077H16.9976C17.7916 20.3077 18.4381 19.6748 18.4381 18.8974V3.10256C18.4381 2.32523 17.7916 1.69231 16.9976 1.69231H3.16905ZM16.7095 13.2564C16.7095 12.7893 16.3223 12.4103 15.8452 12.4103H4.32143C3.84434 12.4103 3.45714 12.7893 3.45714 13.2564C3.45714 13.7235 3.84434 14.1026 4.32143 14.1026H15.8452C16.3223 14.1026 16.7095 13.7235 16.7095 13.2564ZM12.1 16.641C12.1 16.1739 11.7128 15.7949 11.2357 15.7949H4.32143C3.84434 15.7949 3.45714 16.1739 3.45714 16.641C3.45714 17.1081 3.84434 17.4872 4.32143 17.4872H11.2357C11.7128 17.4872 12.1 17.1081 12.1 16.641Z" fill="#7D848D"/>
</svg>
