<svg width="16" height="20" viewBox="0 0 16 20" fill="none" xmlns="http://www.w3.org/2000/svg">
<path fill-rule="evenodd" clip-rule="evenodd" d="M13.7772 16H2.22281C0.394434 16 -0.649243 14.1609 0.447786 12.8721C0.933441 12.3016 1.23274 11.6249 1.31328 10.9153L1.76046 6.97519C2.0016 4.85063 3.58766 3.10719 5.73005 2.37366V2.26995C5.73005 1.01629 6.74634 0 8 0C9.25366 0 10.2699 1.01629 10.2699 2.26995V2.37366C12.4123 3.10719 13.9984 4.85063 14.2395 6.97519L14.6867 10.9153C14.7673 11.6249 15.0666 12.3016 15.5522 12.8721C16.6492 14.1609 15.6056 16 13.7772 16ZM10.9721 18.0715C10.5147 19.1992 9.35653 20 8 20C6.64347 20 5.48526 19.1992 5.02789 18.0715C5.00883 18.0245 5 17.974 5 17.9233C5 17.6895 5.18951 17.5 5.42329 17.5H10.5767C10.8105 17.5 11 17.6895 11 17.9233C11 17.974 10.9912 18.0245 10.9721 18.0715Z" fill="#B41712"/>
</svg>
