<svg width="36" height="36" viewBox="0 0 36 36" fill="none" xmlns="http://www.w3.org/2000/svg">
<g clip-path="url(#clip0_1004_26402)">
<rect width="36" height="36" rx="18" fill="#E8F1FD"/>
<path d="M24.5653 21.8381C23.507 20.9436 22.9001 19.6354 22.9001 18.2505V16.2997C22.9001 13.8365 21.07 11.7975 18.7003 11.4563V10.7003C18.7003 10.3129 18.3864 10 18 10C17.6136 10 17.2997 10.3129 17.2997 10.7003V11.4563C14.9289 11.7975 13.0999 13.8365 13.0999 16.2997V18.2515C13.0999 19.6364 12.493 20.9436 11.4284 21.8444C11.1564 22.0775 11 22.4167 11 22.7747C11 23.4498 11.5491 24 12.2253 24H23.7747C24.4498 24 25 23.4509 25 22.7747C25 22.4167 24.8435 22.0775 24.5653 21.8381Z" fill="#1470F5"/>
<path d="M17.9999 26.7991C19.2671 26.7991 20.3276 25.8962 20.5712 24.6992H15.4275C15.6721 25.8962 16.7326 26.7991 17.9999 26.7991Z" fill="#24215B"/>
</g>
<defs>
<clipPath id="clip0_1004_26402">
<rect width="36" height="36" fill="white"/>
</clipPath>
</defs>
</svg>
