<svg width="24" height="24" viewBox="0 0 24 24" fill="none" xmlns="http://www.w3.org/2000/svg">
<g clip-path="url(#clip0_1880_65030)">
<path d="M4.49963 6.25049V1.75049C4.49963 1.49049 4.52963 1.24049 4.59963 1.00049H1.74963C0.789634 1.00049 -0.000366211 1.79049 -0.000366211 2.75049V7.25049C-0.000366211 8.21049 0.789634 9.00049 1.74963 9.00049H2.11963L3.39963 10.7005C3.53963 10.8805 3.74963 10.9905 3.96963 11.0005H3.99963C4.21963 11.0005 4.41963 10.9105 4.55963 10.7405L6.05963 9.03049C5.12963 8.45049 4.49963 7.42049 4.49963 6.25049Z" fill="#FFC107"/>
<path d="M22.2501 1.00049H19.4001C19.4701 1.24049 19.5001 1.49049 19.5001 1.75049V6.25049C19.5001 7.42049 18.8701 8.45049 17.9401 9.03049L19.4401 10.7405C19.5801 10.9105 19.7801 11.0005 20.0001 11.0005H20.0301C20.2501 10.9905 20.4601 10.8805 20.6001 10.7005L21.8701 9.00049H22.2501C23.2101 9.00049 24.0001 8.21049 24.0001 7.25049V2.75049C24.0001 1.79049 23.2101 1.00049 22.2501 1.00049Z" fill="#FFC107"/>
<path d="M11.9996 10.0005C11.9906 10.0005 11.9806 10.0005 11.9716 10.0005C11.7456 9.99149 11.5356 9.88149 11.3996 9.70049L10.1246 8.00049H7.74963C6.78463 8.00049 5.99963 7.21549 5.99963 6.25049V1.75049C5.99963 0.785488 6.78463 0.000488281 7.74963 0.000488281H16.2496C17.2146 0.000488281 17.9996 0.785488 17.9996 1.75049V6.25049C17.9996 7.21549 17.2146 8.00049 16.2496 8.00049H14.0896L12.5636 9.74449C12.4216 9.90749 12.2156 10.0005 11.9996 10.0005Z" fill="#03A9F4"/>
<path d="M3.99963 17.001C5.1042 17.001 5.99963 16.1055 5.99963 15.001C5.99963 13.8964 5.1042 13.001 3.99963 13.001C2.89506 13.001 1.99963 13.8964 1.99963 15.001C1.99963 16.1055 2.89506 17.001 3.99963 17.001Z" fill="#4CAF50"/>
<path d="M6.66963 18.401C5.65963 19.161 4.99963 20.381 4.99963 21.751V22.001H0.749634C0.339634 22.001 -0.000366211 21.661 -0.000366211 21.251V20.751C-0.000366211 19.231 1.22963 18.001 2.74963 18.001H5.24963C5.76963 18.001 6.25963 18.151 6.66963 18.401Z" fill="#4CAF50"/>
<path d="M19.9996 17.001C21.1042 17.001 21.9996 16.1055 21.9996 15.001C21.9996 13.8964 21.1042 13.001 19.9996 13.001C18.8951 13.001 17.9996 13.8964 17.9996 15.001C17.9996 16.1055 18.8951 17.001 19.9996 17.001Z" fill="#4CAF50"/>
<path d="M23.9997 20.751V21.251C23.9997 21.661 23.6597 22.001 23.2497 22.001H18.9997V21.751C18.9997 20.381 18.3397 19.161 17.3297 18.401C17.7397 18.151 18.2297 18.001 18.7497 18.001H21.2497C22.7697 18.001 23.9997 19.231 23.9997 20.751Z" fill="#4CAF50"/>
<path d="M11.9996 17.5005C13.6565 17.5005 14.9996 16.1573 14.9996 14.5005C14.9996 12.8436 13.6565 11.5005 11.9996 11.5005C10.3428 11.5005 8.99963 12.8436 8.99963 14.5005C8.99963 16.1573 10.3428 17.5005 11.9996 17.5005Z" fill="#2196F3"/>
<path d="M14.7496 19.0005H9.24963C7.73263 19.0005 6.49963 20.2335 6.49963 21.7505V23.2505C6.49963 23.6645 6.83563 24.0005 7.24963 24.0005H16.7496C17.1636 24.0005 17.4996 23.6645 17.4996 23.2505V21.7505C17.4996 20.2335 16.2666 19.0005 14.7496 19.0005Z" fill="#2196F3"/>
</g>
<defs>
<clipPath id="clip0_1880_65030">
<rect width="24" height="24" fill="white" transform="translate(-0.000366211 0.000488281)"/>
</clipPath>
</defs>
</svg>
