<svg width="49" height="48" viewBox="0 0 49 48" fill="none" xmlns="http://www.w3.org/2000/svg">
<rect x="1" y="0.5" width="47" height="47" rx="23.5" fill="#1470F5" stroke="#1470F5"/>
<g clip-path="url(#clip0_1134_51968)">
<path d="M29.75 19.5V18C29.75 17.2044 29.4339 16.4413 28.8713 15.8787C28.3087 15.3161 27.5456 15 26.75 15H22.25C21.4544 15 20.6913 15.3161 20.1287 15.8787C19.5661 16.4413 19.25 17.2044 19.25 18V19.5C18.2558 19.5012 17.3027 19.8967 16.5997 20.5997C15.8967 21.3027 15.5012 22.2558 15.5 23.25L15.5 27C15.5012 27.9942 15.8967 28.9473 16.5997 29.6503C17.3027 30.3533 18.2558 30.7488 19.25 30.75C19.25 31.3467 19.4871 31.919 19.909 32.341C20.331 32.7629 20.9033 33 21.5 33H27.5C28.0967 33 28.669 32.7629 29.091 32.341C29.5129 31.919 29.75 31.3467 29.75 30.75C30.7442 30.7488 31.6973 30.3533 32.4003 29.6503C33.1033 28.9473 33.4988 27.9942 33.5 27V23.25C33.4988 22.2558 33.1033 21.3027 32.4003 20.5997C31.6973 19.8967 30.7442 19.5012 29.75 19.5ZM20.75 18C20.75 17.6022 20.908 17.2206 21.1893 16.9393C21.4706 16.658 21.8522 16.5 22.25 16.5H26.75C27.1478 16.5 27.5294 16.658 27.8107 16.9393C28.092 17.2206 28.25 17.6022 28.25 18V19.5H20.75V18ZM28.25 30.75C28.25 30.9489 28.171 31.1397 28.0303 31.2803C27.8897 31.421 27.6989 31.5 27.5 31.5H21.5C21.3011 31.5 21.1103 31.421 20.9697 31.2803C20.829 31.1397 20.75 30.9489 20.75 30.75V27.75C20.75 27.5511 20.829 27.3603 20.9697 27.2197C21.1103 27.079 21.3011 27 21.5 27H27.5C27.6989 27 27.8897 27.079 28.0303 27.2197C28.171 27.3603 28.25 27.5511 28.25 27.75V30.75ZM32 27C32 27.5967 31.7629 28.169 31.341 28.591C30.919 29.0129 30.3467 29.25 29.75 29.25V27.75C29.75 27.1533 29.5129 26.581 29.091 26.159C28.669 25.7371 28.0967 25.5 27.5 25.5H21.5C20.9033 25.5 20.331 25.7371 19.909 26.159C19.4871 26.581 19.25 27.1533 19.25 27.75V29.25C18.6533 29.25 18.081 29.0129 17.659 28.591C17.2371 28.169 17 27.5967 17 27V23.25C17 22.6533 17.2371 22.081 17.659 21.659C18.081 21.2371 18.6533 21 19.25 21H29.75C30.3467 21 30.919 21.2371 31.341 21.659C31.7629 22.081 32 22.6533 32 23.25V27Z" fill="white"/>
<path d="M29 22.5H27.5C27.3011 22.5 27.1103 22.579 26.9697 22.7197C26.829 22.8603 26.75 23.0511 26.75 23.25C26.75 23.4489 26.829 23.6397 26.9697 23.7803C27.1103 23.921 27.3011 24 27.5 24H29C29.1989 24 29.3897 23.921 29.5303 23.7803C29.671 23.6397 29.75 23.4489 29.75 23.25C29.75 23.0511 29.671 22.8603 29.5303 22.7197C29.3897 22.579 29.1989 22.5 29 22.5Z" fill="white"/>
</g>
<defs>
<clipPath id="clip0_1134_51968">
<rect width="18" height="18" fill="white" transform="translate(15.5 15)"/>
</clipPath>
</defs>
</svg>
