<svg width="32" height="32" viewBox="0 0 32 32" fill="none" xmlns="http://www.w3.org/2000/svg">
<g filter="url(#filter0_b_3251_9992)">
<circle cx="16" cy="16" r="16" fill="white" fill-opacity="0.2"/>
</g>
<path d="M22 10.6663C21.6315 10.6663 21.3333 10.9649 21.3333 11.333V12.002C20.0955 10.3551 18.1323 9.33301 16 9.33301C12.8653 9.33301 10.1914 11.4655 9.49808 14.5185C9.41668 14.8776 9.64195 15.235 10.0007 15.3164C10.0508 15.3278 10.1003 15.333 10.1491 15.333C10.4531 15.333 10.7285 15.1233 10.7988 14.8141C11.3529 12.3721 13.4922 10.6663 16 10.6663C17.9231 10.6663 19.6677 11.71 20.6095 13.333H19.3333C18.9649 13.333 18.6667 13.6315 18.6667 13.9997C18.6667 14.3678 18.9649 14.6663 19.3333 14.6663H22C22.3685 14.6663 22.6667 14.3678 22.6667 13.9997V11.333C22.6667 10.9649 22.3685 10.6663 22 10.6663Z" fill="#F7F7F9"/>
<path d="M10 21.3335C10.3685 21.3335 10.6667 21.0349 10.6667 20.6668V19.9833C11.9112 21.6568 13.8588 22.6668 16 22.6668C19.1347 22.6668 21.8086 20.5343 22.5019 17.4813C22.5833 17.1222 22.3581 16.7648 21.9993 16.6834C21.6367 16.5997 21.2825 16.8266 21.2011 17.1857C20.6471 19.6277 18.5078 21.3335 16 21.3335C14.0763 21.3335 12.348 20.3151 11.3946 18.6668H12.6667C13.0351 18.6668 13.3333 18.3683 13.3333 18.0001C13.3333 17.632 13.0351 17.3335 12.6667 17.3335H10C9.63154 17.3335 9.33334 17.632 9.33334 18.0001V20.6668C9.33334 21.0349 9.63154 21.3335 10 21.3335Z" fill="#F7F7F9"/>
<defs>
<filter id="filter0_b_3251_9992" x="-17.7273" y="-17.7273" width="67.4545" height="67.4545" filterUnits="userSpaceOnUse" color-interpolation-filters="sRGB">
<feFlood flood-opacity="0" result="BackgroundImageFix"/>
<feGaussianBlur in="BackgroundImageFix" stdDeviation="8.86364"/>
<feComposite in2="SourceAlpha" operator="in" result="effect1_backgroundBlur_3251_9992"/>
<feBlend mode="normal" in="SourceGraphic" in2="effect1_backgroundBlur_3251_9992" result="shape"/>
</filter>
</defs>
</svg>
