<svg width="22" height="22" viewBox="0 0 22 22" fill="none" xmlns="http://www.w3.org/2000/svg">
<g clip-path="url(#clip0_2130_17924)">
<path d="M20.2595 9.68082L2.5235 1.0291C2.37097 0.95469 2.20348 0.916016 2.03376 0.916016C1.41682 0.916016 0.916687 1.41615 0.916687 2.03308V2.06532C0.916687 2.21522 0.935066 2.36455 0.971421 2.50997L2.67273 9.31516C2.71919 9.50106 2.87636 9.63837 3.06677 9.65955L10.5445 10.4904C10.8039 10.5192 11 10.7384 11 10.9993C11 11.2603 10.8039 11.4795 10.5445 11.5083L3.06677 12.3392C2.87636 12.3603 2.71919 12.4976 2.67273 12.6835L0.971421 19.4887C0.935066 19.6342 0.916687 19.7835 0.916687 19.9334V19.9656C0.916687 20.5826 1.41682 21.0827 2.03376 21.0827C2.20348 21.0827 2.37097 21.044 2.5235 20.9696L20.2595 12.3179C20.7635 12.072 21.0834 11.5603 21.0834 10.9993C21.0834 10.4384 20.7635 9.92667 20.2595 9.68082Z" fill="#0054CD"/>
</g>
<defs>
<clipPath id="clip0_2130_17924">
<rect width="22" height="22" fill="white"/>
</clipPath>
</defs>
</svg>
