<svg width="22" height="22" viewBox="0 0 22 22" fill="none" xmlns="http://www.w3.org/2000/svg">
<path d="M20.2595 9.68179L2.5235 1.03007C2.37097 0.955666 2.20348 0.916992 2.03376 0.916992C1.41682 0.916992 0.916687 1.41713 0.916687 2.03406V2.0663C0.916687 2.21619 0.935066 2.36553 0.971421 2.51095L2.67273 9.31613C2.71919 9.50203 2.87636 9.63935 3.06677 9.66053L10.5445 10.4914C10.8039 10.5202 11 10.7394 11 11.0003C11 11.2613 10.8039 11.4805 10.5445 11.5093L3.06677 12.3401C2.87636 12.3613 2.71919 12.4986 2.67273 12.6845L0.971421 19.4897C0.935066 19.6351 0.916687 19.7845 0.916687 19.9343V19.9666C0.916687 20.5835 1.41682 21.0837 2.03376 21.0837C2.20348 21.0837 2.37097 21.045 2.5235 20.9705L20.2595 12.3189C20.7635 12.073 21.0834 11.5612 21.0834 11.0003C21.0834 10.4394 20.7635 9.92764 20.2595 9.68179Z" fill="#0054CD"/>
</svg>
