<svg width="40" height="40" viewBox="0 0 40 40" fill="none" xmlns="http://www.w3.org/2000/svg">
<rect width="40" height="40" rx="20" fill="#F04A7C"/>
<path d="M19.4515 14.792C16.8866 14.792 14.7973 16.8813 14.7973 19.4462C14.7973 22.011 16.8866 24.1044 19.4515 24.1044C20.547 24.1044 21.5545 23.7205 22.3508 23.083L24.2895 25.0206C24.3873 25.1144 24.518 25.1662 24.6535 25.1648C24.789 25.1634 24.9186 25.109 25.0145 25.0132C25.1104 24.9175 25.165 24.788 25.1666 24.6525C25.1681 24.517 25.1166 24.3862 25.0229 24.2883L23.0843 22.3496C23.7223 21.5521 24.1066 20.543 24.1066 19.4462C24.1066 16.8813 22.0163 14.792 19.4515 14.792ZM19.4515 15.8265C21.4572 15.8265 23.0711 17.4404 23.0711 19.4462C23.0711 21.4519 21.4572 23.0699 19.4515 23.0699C17.4457 23.0699 15.8318 21.4519 15.8318 19.4462C15.8318 17.4404 17.4457 15.8265 19.4515 15.8265Z" fill="white"/>
</svg>
