<svg width="52" height="52" viewBox="0 0 52 52" fill="none" xmlns="http://www.w3.org/2000/svg">
<path opacity="0.1" d="M26 52C40.3594 52 52 40.3594 52 26C52 11.6406 40.3594 0 26 0C11.6406 0 0 11.6406 0 26C0 40.3594 11.6406 52 26 52Z" fill="#FFC133"/>
<g clip-path="url(#clip0_1880_64947)">
<rect x="14.7446" y="14.7446" width="7.87879" height="7.87879" fill="#FFC133"/>
<rect x="14.7446" y="29.3765" width="7.87879" height="7.87879" fill="#FFC133"/>
<rect x="29.3766" y="14.7446" width="7.87879" height="7.87879" fill="#FFC133"/>
<rect x="29.3766" y="29.3765" width="7.87879" height="7.87879" rx="3.5" fill="#FFC133"/>
<path d="M22.1689 13.6191H15.5054C14.4649 13.6191 13.6183 14.4657 13.6183 15.5063V22.17C13.6183 23.2106 14.4649 24.0572 15.5054 24.0572H22.169C23.2096 24.0572 24.0562 23.2106 24.0562 22.17V15.5063C24.0561 14.4657 23.2095 13.6191 22.1689 13.6191ZM15.5054 22.17V15.5063H22.169L22.1692 22.17L15.5054 22.17Z" fill="#FFC133"/>
<path d="M29.6869 24.0571H36.3505C37.3911 24.0571 38.2376 23.2106 38.2376 22.17V15.5063C38.2376 14.4657 37.3911 13.6191 36.3505 13.6191H29.6869C28.6463 13.6191 27.7997 14.4657 27.7997 15.5063V22.17C27.7997 23.2106 28.6463 24.0571 29.6869 24.0571ZM29.6869 15.5063H36.3505L36.3507 22.17H29.6869V15.5063Z" fill="#FFC133"/>
<path d="M22.1688 27.8008H15.5054C14.4648 27.8008 13.6182 28.6474 13.6182 29.6879V36.3517C13.6182 37.3923 14.4648 38.2389 15.5054 38.2389H22.1689C23.2095 38.2389 24.0561 37.3923 24.0561 36.3517V29.6879C24.056 28.6474 23.2094 27.8008 22.1688 27.8008ZM15.5054 36.3517V29.6879H22.1689L22.1691 36.3517L15.5054 36.3517Z" fill="#FFC133"/>
<path d="M38.1085 36.7751L36.7982 35.4648C37.3279 34.6802 37.6376 33.7353 37.6376 32.7194C37.6376 30.0073 35.431 27.8008 32.7187 27.8008C30.0065 27.8008 27.7999 30.0073 27.7999 32.7194C27.7999 35.4319 30.0065 37.6387 32.7187 37.6387C33.7344 37.6387 34.6793 37.329 35.4639 36.7993L36.7741 38.1095C37.1631 38.4985 37.8209 38.4657 38.1704 38.0414C38.4751 37.6713 38.4472 37.1138 38.1085 36.7751ZM35.7498 32.7192C35.7498 34.3933 34.3928 35.7504 32.7186 35.7504C31.0445 35.7504 29.6873 34.3933 29.6873 32.7192C29.6873 31.045 31.0445 29.6879 32.7186 29.6879C34.3927 29.6879 35.7498 31.045 35.7498 32.7192Z" fill="#FFC133"/>
</g>
<defs>
<clipPath id="clip0_1880_64947">
<rect width="24.7619" height="24.7619" fill="white" transform="translate(13.619 13.6191)"/>
</clipPath>
</defs>
</svg>
