<svg width="49" height="48" viewBox="0 0 49 48" fill="none" xmlns="http://www.w3.org/2000/svg">
<rect x="1" y="0.5" width="47" height="47" rx="23.5" fill="#1470F5" stroke="#1470F5"/>
<g clip-path="url(#clip0_1134_51973)">
<path d="M29.9998 26.0002C29.4327 26.0007 28.8743 26.1391 28.3726 26.4036C27.871 26.668 27.4413 27.0506 27.1205 27.5182L22.2388 25.3139C22.5855 24.4767 22.5868 23.5362 22.2425 22.6979L27.1175 20.4824C27.5929 21.17 28.299 21.6644 29.1077 21.876C29.9164 22.0875 30.7742 22.0022 31.5254 21.6356C32.2766 21.2689 32.8715 20.6451 33.2021 19.8774C33.5328 19.1097 33.5774 18.2488 33.3278 17.4511C33.0782 16.6533 32.5509 15.9714 31.8416 15.5291C31.1322 15.0868 30.2879 14.9134 29.4617 15.0403C28.6354 15.1672 27.8821 15.586 27.3382 16.2208C26.7943 16.8556 26.496 17.6643 26.4973 18.5002C26.5004 18.698 26.5205 18.8953 26.5573 19.0897L21.3748 21.4447C20.877 20.9784 20.2539 20.6676 19.5819 20.5505C18.91 20.4335 18.2185 20.5152 17.5924 20.7858C16.9663 21.0563 16.4328 21.5039 16.0576 22.0735C15.6823 22.643 15.4816 23.3098 15.4801 23.9919C15.4786 24.6739 15.6764 25.3416 16.0491 25.9128C16.4219 26.484 16.9533 26.9339 17.5783 27.2072C18.2032 27.4805 18.8943 27.5653 19.5668 27.4512C20.2392 27.3371 20.8637 27.0291 21.3635 26.5649L26.5595 28.9109C26.5234 29.1052 26.5036 29.3021 26.5003 29.4997C26.5001 30.192 26.7053 30.8689 27.0898 31.4446C27.4744 32.0203 28.0211 32.4691 28.6607 32.7341C29.3003 32.9991 30.0041 33.0685 30.6832 32.9335C31.3622 32.7984 31.986 32.4651 32.4756 31.9755C32.9651 31.4859 33.2985 30.8622 33.4335 30.1831C33.5686 29.5041 33.4992 28.8002 33.2342 28.1606C32.9692 27.521 32.5204 26.9743 31.9447 26.5898C31.369 26.2052 30.6921 26 29.9998 26.0002ZM29.9998 16.4999C30.3954 16.4998 30.7822 16.617 31.1112 16.8367C31.4403 17.0564 31.6968 17.3687 31.8483 17.7342C31.9998 18.0997 32.0395 18.5019 31.9624 18.89C31.8853 19.278 31.6949 19.6345 31.4152 19.9143C31.1355 20.1941 30.779 20.3847 30.391 20.462C30.003 20.5392 29.6008 20.4996 29.2352 20.3483C28.8697 20.1969 28.5572 19.9405 28.3374 19.6115C28.1176 19.2826 28.0003 18.8958 28.0003 18.5002C28.0007 17.9699 28.2114 17.4615 28.5863 17.0865C28.9612 16.7115 29.4695 16.5005 29.9998 16.4999ZM19.0003 26.0002C18.6046 26.0003 18.2178 25.8832 17.8888 25.6635C17.5597 25.4438 17.3032 25.1314 17.1517 24.7659C17.0002 24.4004 16.9605 23.9982 17.0376 23.6102C17.1147 23.2221 17.3051 22.8656 17.5849 22.5858C17.8646 22.306 18.221 22.1154 18.609 22.0382C18.997 21.9609 19.3993 22.0005 19.7648 22.1519C20.1303 22.3033 20.4428 22.5596 20.6626 22.8886C20.8824 23.2175 20.9998 23.6043 20.9998 23.9999C20.9992 24.5301 20.7883 25.0384 20.4135 25.4134C20.0387 25.7884 19.5304 25.9994 19.0003 26.0002ZM29.9998 31.4999C29.6041 31.4999 29.2174 31.3826 28.8885 31.1628C28.5595 30.9431 28.3032 30.6307 28.1518 30.2652C28.0004 29.8997 27.9608 29.4975 28.0379 29.1095C28.1151 28.7215 28.3056 28.365 28.5854 28.0853C28.8651 27.8056 29.2215 27.6151 29.6095 27.5379C29.9975 27.4607 30.3997 27.5003 30.7652 27.6517C31.1307 27.8031 31.4431 28.0595 31.6629 28.3884C31.8827 28.7174 32 29.1041 32 29.4997C31.9996 30.0301 31.7887 30.5386 31.4137 30.9136C31.0387 31.2887 30.5301 31.4995 29.9998 31.4999Z" fill="white"/>
</g>
<defs>
<clipPath id="clip0_1134_51973">
<rect width="18" height="18" fill="white" transform="translate(15.5 15)"/>
</clipPath>
</defs>
</svg>
