<svg width="16" height="16" viewBox="0 0 16 16" fill="none" xmlns="http://www.w3.org/2000/svg">
<g clip-path="url(#clip0_1880_63227)">
<path d="M2 2H5.33333V0H2C1.46957 0 0.960859 0.210714 0.585786 0.585786C0.210714 0.960859 0 1.46957 0 2L0 14C0 14.5304 0.210714 15.0391 0.585786 15.4142C0.960859 15.7893 1.46957 16 2 16H5.33333V14H2V2Z" fill="#36A100"/>
<path d="M15.2986 6.3503L12.2413 3.29297L10.8273 4.70764L13.1026 6.9823L3.33331 7.0003V9.0003L13.1333 8.9823L10.8226 11.293L12.2366 12.7076L15.2946 9.6503C15.7318 9.21272 15.9777 8.61968 15.9785 8.00113C15.9792 7.38257 15.7348 6.78894 15.2986 6.3503Z" fill="#36A100"/>
</g>
<defs>
<clipPath id="clip0_1880_63227">
<rect width="16" height="16" fill="white"/>
</clipPath>
</defs>
</svg>
