<svg width="20" height="20" viewBox="0 0 20 20" fill="none" xmlns="http://www.w3.org/2000/svg">
<path d="M18.6943 8.59371L14.8012 12.3887L15.7206 17.7487C15.7606 17.9831 15.6643 18.22 15.4718 18.36C15.3631 18.4393 15.2337 18.4793 15.1043 18.4793C15.005 18.4793 14.905 18.4556 14.8137 18.4075L9.99998 15.8768L5.18685 18.4068C4.97685 18.5181 4.72123 18.5 4.52873 18.3593C4.33623 18.2193 4.23998 17.9825 4.27998 17.7481L5.19935 12.3881L1.3056 8.59371C1.1356 8.42746 1.07373 8.17871 1.14748 7.95309C1.22123 7.72746 1.41685 7.56184 1.65248 7.52746L7.0331 6.74621L9.43935 1.86996C9.64997 1.44309 10.35 1.44309 10.5606 1.86996L12.9668 6.74621L18.3475 7.52746C18.5831 7.56184 18.7787 7.72684 18.8525 7.95309C18.9262 8.17934 18.8643 8.42684 18.6943 8.59371Z" fill="#FFC133"/>
</svg>
