<svg width="16" height="16" viewBox="0 0 16 16" fill="none" xmlns="http://www.w3.org/2000/svg">
<g clip-path="url(#clip0_1880_63202)">
<path d="M12 8C9.79067 8 8 9.79067 8 12C8 14.2093 9.79067 16 12 16C14.2093 16 16 14.2093 16 12C16 9.79067 14.2093 8 12 8ZM12.3567 13.6787C12.1513 13.8847 11.872 14 11.5747 14C11.2773 14 10.9987 13.884 10.7887 13.674L9.55867 12.482L10.4873 11.5247L11.574 12.578L13.726 10.4613L14.6607 11.412L12.3567 13.6787ZM6.66667 12C6.66667 10.4067 7.36533 8.97733 8.47267 8H2.66667V6.66667H9.33333V7.38067C10.118 6.92667 11.0287 6.66667 12 6.66667V2C12 0.897333 11.1027 0 10 0H2C0.897333 0 0 0.897333 0 2V16H8.47267C7.36533 15.0227 6.66667 13.5933 6.66667 12ZM2.66667 3.33333H9.33333V4.66667H2.66667V3.33333ZM5.33333 11.3333H2.66667V10H5.33333V11.3333Z" fill="#F04A7C"/>
</g>
<defs>
<clipPath id="clip0_1880_63202">
<rect width="16" height="16" fill="white"/>
</clipPath>
</defs>
</svg>
