<svg width="60" height="60" viewBox="0 0 60 60" fill="none" xmlns="http://www.w3.org/2000/svg">
<path d="M30 60C46.5685 60 60 46.5685 60 30C60 13.4315 46.5685 0 30 0C13.4315 0 0 13.4315 0 30C0 46.5685 13.4315 60 30 60Z" fill="#00A1F5"/>
<path d="M40.8199 16.6289H35.0273C34.9989 15.3144 34.4568 14.0633 33.5171 13.1436C32.5774 12.224 31.3148 11.709 30 11.709C28.6851 11.709 27.4226 12.224 26.4829 13.1436C25.5431 14.0633 25.001 15.3144 24.9726 16.6289H19.1801C18.7102 16.6289 18.2595 16.8152 17.9267 17.1469C17.5939 17.4786 17.4062 17.9286 17.4047 18.3985V46.4907C17.4047 46.9615 17.5917 47.4131 17.9247 47.7461C18.2576 48.079 18.7092 48.2661 19.1801 48.2661H40.8199C41.2908 48.2661 41.7423 48.079 42.0753 47.7461C42.4082 47.4131 42.5953 46.9615 42.5953 46.4907V18.3985C42.5937 17.9286 42.406 17.4786 42.0732 17.1469C41.7404 16.8152 41.2897 16.6289 40.8199 16.6289ZM30 15.2532C30.3745 15.2534 30.7351 15.3954 31.0093 15.6506C31.2834 15.9058 31.4508 16.2554 31.4777 16.6289H28.5222C28.5492 16.2554 28.7165 15.9058 28.9907 15.6506C29.2648 15.3954 29.6254 15.2534 30 15.2532ZM26.7633 20.175H33.2367V21.5286H26.7633V20.175ZM30.7289 41.0614H24.8824C24.4118 41.0614 23.9606 40.8744 23.6278 40.5417C23.2951 40.209 23.1082 39.7577 23.1082 39.2871C23.1082 38.8166 23.2951 38.3653 23.6278 38.0326C23.9606 37.6999 24.4118 37.5129 24.8824 37.5129H30.7289C31.1994 37.5129 31.6507 37.6999 31.9834 38.0326C32.3162 38.3653 32.5031 38.8166 32.5031 39.2871C32.5031 39.7577 32.3162 40.209 31.9834 40.5417C31.6507 40.8744 31.1994 41.0614 30.7289 41.0614ZM34.8832 36.0832H24.8824C24.4196 36.0713 23.9797 35.8791 23.6566 35.5476C23.3335 35.2161 23.1526 34.7714 23.1526 34.3084C23.1526 33.8455 23.3335 33.4008 23.6566 33.0693C23.9797 32.7377 24.4196 32.5455 24.8824 32.5336H34.8832C35.346 32.5455 35.7858 32.7377 36.109 33.0693C36.4321 33.4008 36.613 33.8455 36.613 34.3084C36.613 34.7714 36.4321 35.2161 36.109 35.5476C35.7858 35.8791 35.346 36.0713 34.8832 36.0832ZM34.8832 31.1039H24.8824C24.4196 31.0921 23.9797 30.8998 23.6566 30.5683C23.3335 30.2368 23.1526 29.7921 23.1526 29.3291C23.1526 28.8662 23.3335 28.4215 23.6566 28.09C23.9797 27.7584 24.4196 27.5662 24.8824 27.5543H34.8832C35.346 27.5662 35.7858 27.7584 36.109 28.09C36.4321 28.4215 36.613 28.8662 36.613 29.3291C36.613 29.7921 36.4321 30.2368 36.109 30.5683C35.7858 30.8998 35.346 31.0921 34.8832 31.1039Z" fill="white"/>
</svg>
