<svg width="24" height="24" viewBox="0 0 24 24" fill="none" xmlns="http://www.w3.org/2000/svg">
<path d="M14 21C18.9706 21 23 16.9706 23 12C23 7.02944 18.9706 3 14 3C9.02944 3 5 7.02944 5 12C5 16.9706 9.02944 21 14 21Z" fill="#F04A7C" fill-opacity="0.1"/>
<path d="M12 2.25C6.624 2.25 2.25 6.624 2.25 12C2.25 17.376 6.624 21.75 12 21.75C17.376 21.75 21.75 17.376 21.75 12C21.75 6.624 17.376 2.25 12 2.25ZM12 20.25C7.451 20.25 3.75 16.549 3.75 12C3.75 7.451 7.451 3.75 12 3.75C16.549 3.75 20.25 7.451 20.25 12C20.25 16.549 16.549 20.25 12 20.25Z" fill="#F04A7C"/>
<path d="M15.424 8.51905L10.95 13.8881L8.53002 11.4691C8.23702 11.1761 7.76202 11.1761 7.46902 11.4691C7.17602 11.7621 7.17602 12.2371 7.46902 12.5301L10.081 15.1421C10.314 15.3771 10.635 15.5091 10.966 15.5091H11.02C11.371 15.4931 11.701 15.3301 11.926 15.0601L16.575 9.48005C16.841 9.16205 16.798 8.68905 16.479 8.42405C16.16 8.15905 15.688 8.20105 15.422 8.52005L15.424 8.51905Z" fill="#F04A7C"/>
</svg>
