<svg width="16" height="16" viewBox="0 0 16 16" fill="none" xmlns="http://www.w3.org/2000/svg">
<g clip-path="url(#clip0_1880_63221)">
<path d="M11.3333 2.66667V1.33333C11.3333 0.979711 11.1928 0.640573 10.9428 0.390524C10.6927 0.140476 10.3536 0 9.99998 0L5.99998 0C5.64636 0 5.30722 0.140476 5.05717 0.390524C4.80712 0.640573 4.66665 0.979711 4.66665 1.33333V2.66667H1.33331V4H2.66665V14C2.66665 14.5304 2.87736 15.0391 3.25243 15.4142C3.62751 15.7893 4.13621 16 4.66665 16H11.3333C11.8637 16 12.3725 15.7893 12.7475 15.4142C13.1226 15.0391 13.3333 14.5304 13.3333 14V4H14.6666V2.66667H11.3333ZM7.33331 11.3333H5.99998V7.33333H7.33331V11.3333ZM9.99998 11.3333H8.66665V7.33333H9.99998V11.3333ZM9.99998 2.66667H5.99998V1.33333H9.99998V2.66667Z" fill="black"/>
</g>
<defs>
<clipPath id="clip0_1880_63221">
<rect width="16" height="16" fill="white"/>
</clipPath>
</defs>
</svg>
