<svg width="16" height="16" viewBox="0 0 16 16" fill="none" xmlns="http://www.w3.org/2000/svg">
<g clip-path="url(#clip0_1880_63195)">
<path d="M10.6953 9.33398H5.30467C4.42854 9.33504 3.5886 9.68355 2.96908 10.3031C2.34957 10.9226 2.00106 11.7625 2 12.6387V16.0007H14V12.6387C13.9989 11.7625 13.6504 10.9226 13.0309 10.3031C12.4114 9.68355 11.5715 9.33504 10.6953 9.33398Z" fill="#FFC133"/>
<path d="M8 8C10.2091 8 12 6.20914 12 4C12 1.79086 10.2091 0 8 0C5.79086 0 4 1.79086 4 4C4 6.20914 5.79086 8 8 8Z" fill="#FFC133"/>
</g>
<defs>
<clipPath id="clip0_1880_63195">
<rect width="16" height="16" fill="white"/>
</clipPath>
</defs>
</svg>
