<svg width="12" height="12" viewBox="0 0 12 12" fill="none" xmlns="http://www.w3.org/2000/svg">
<path d="M9.5 1H9V0.5C9 0.224 8.7765 0 8.5 0C8.2235 0 8 0.224 8 0.5V1H4V0.5C4 0.224 3.7765 0 3.5 0C3.2235 0 3 0.224 3 0.5V1H2.5C1.1215 1 0 2.1215 0 3.5V9.5C0 10.8785 1.1215 12 2.5 12H9.5C10.8785 12 12 10.8785 12 9.5V3.5C12 2.1215 10.8785 1 9.5 1ZM2.5 2H9.5C10.327 2 11 2.673 11 3.5V4H1V3.5C1 2.673 1.673 2 2.5 2ZM9.5 11H2.5C1.673 11 1 10.327 1 9.5V5H11V9.5C11 10.327 10.327 11 9.5 11ZM9.5 7C9.5 7.276 9.2765 7.5 9 7.5H3C2.7235 7.5 2.5 7.276 2.5 7C2.5 6.724 2.7235 6.5 3 6.5H9C9.2765 6.5 9.5 6.724 9.5 7ZM6 9C6 9.276 5.7765 9.5 5.5 9.5H3C2.7235 9.5 2.5 9.276 2.5 9C2.5 8.724 2.7235 8.5 3 8.5H5.5C5.7765 8.5 6 8.724 6 9Z" fill="#1470F5"/>
</svg>
