<svg width="16" height="12" viewBox="0 0 16 12" fill="none" xmlns="http://www.w3.org/2000/svg">
<path d="M7.99549 10.2812C9.47959 10.3304 10.9439 9.93694 12.1947 9.15287C13.4455 8.36881 14.4238 7.23112 15 5.89042C14.3848 4.5784 13.3983 3.46683 12.1575 2.68758C10.9168 1.90834 9.47385 1.49414 8 1.49414C6.52615 1.49414 5.08323 1.90834 3.84248 2.68758C2.60172 3.46683 1.61521 4.5784 1 5.89042C1.57462 7.23041 2.55123 8.36779 3.80047 9.1519C5.04971 9.936 6.51265 10.3298 7.99549 10.2812V10.2812Z" stroke="#999999" stroke-width="1.5" stroke-linecap="round" stroke-linejoin="round"/>
<path d="M9.80523 5.68531C9.80523 6.06151 9.69135 6.42928 9.478 6.74207C9.26464 7.05487 8.96141 7.29867 8.60661 7.44263C8.25182 7.5866 7.8614 7.62425 7.48475 7.55086C7.1081 7.47747 6.76214 7.29632 6.49059 7.0303C6.21905 6.76429 6.0341 6.42535 5.95918 6.05638C5.88426 5.68741 5.92273 5.30498 6.06969 4.95742C6.21665 4.60985 6.46551 4.31277 6.78482 4.10377C7.10413 3.89476 7.47954 3.7832 7.86357 3.7832C8.37853 3.7832 8.87238 3.98361 9.23652 4.34032C9.60065 4.69704 9.80523 5.18085 9.80523 5.68531Z" fill="#999999"/>
<path d="M1.7002 1L14.3002 11" stroke="#999999" stroke-width="1.5" stroke-linecap="round"/>
</svg>
