<svg width="15" height="10" viewBox="0 0 15 10" fill="none" xmlns="http://www.w3.org/2000/svg">
<path d="M7.49581 8.99626C8.87391 9.04101 10.2337 8.68295 11.3951 7.96945C12.5566 7.25595 13.4649 6.22065 14 5.00061C13.4287 3.80668 12.5127 2.79515 11.3606 2.08603C10.2084 1.37692 8.86858 1 7.5 1C6.13142 1 4.79157 1.37692 3.63944 2.08603C2.48731 2.79515 1.57126 3.80668 1 5.00061C1.53358 6.22001 2.44043 7.25502 3.60044 7.96856C4.76044 8.68209 6.11889 9.04049 7.49581 8.99626V8.99626Z" stroke="#999999" stroke-width="1.5" stroke-linecap="round" stroke-linejoin="round"/>
<path d="M9.17628 4.81429C9.17628 5.15664 9.07054 5.4913 8.87242 5.77595C8.67431 6.06059 8.39273 6.28244 8.06328 6.41345C7.73383 6.54446 7.3713 6.57873 7.02156 6.51194C6.67181 6.44515 6.35056 6.28031 6.09841 6.03824C5.84626 5.79616 5.67452 5.48773 5.60495 5.15197C5.53538 4.8162 5.5711 4.46819 5.70757 4.15191C5.84403 3.83562 6.07512 3.56528 6.37162 3.37509C6.66812 3.18489 7.01672 3.08337 7.37331 3.08337C7.8515 3.08337 8.31007 3.26574 8.64819 3.59035C8.98632 3.91496 9.17628 4.35523 9.17628 4.81429Z" fill="#999999"/>
</svg>
