<svg width="16" height="16" viewBox="0 0 16 16" fill="none" xmlns="http://www.w3.org/2000/svg">
<g clip-path="url(#clip0_2130_6910)">
<path d="M16 6.33333C16.0016 5.91539 15.8909 5.5047 15.6795 5.14417C15.4681 4.78365 15.1637 4.48652 14.7982 4.28385C14.4326 4.08118 14.0194 3.98041 13.6016 3.99206C13.1838 4.00372 12.7769 4.12737 12.4232 4.3501C12.0696 4.57283 11.7822 4.88646 11.5912 5.25821C11.4002 5.62996 11.3126 6.04618 11.3375 6.46339C11.3624 6.88059 11.4988 7.28345 11.7327 7.62987C11.9665 7.97629 12.2891 8.25355 12.6667 8.43267V10.6667C12.6667 11.5507 12.3155 12.3986 11.6904 13.0237C11.0652 13.6488 10.2174 14 9.33333 14C8.44928 14 7.60143 13.6488 6.97631 13.0237C6.35119 12.3986 6 11.5507 6 10.6667V10.566C7.1285 10.334 8.14252 9.72002 8.87115 8.82757C9.59977 7.93513 9.99845 6.81877 10 5.66667V3.66667C9.99894 2.69453 9.61229 1.76252 8.92489 1.07511C8.23748 0.387707 7.30547 0.00105878 6.33333 0C6.06812 0 5.81376 0.105357 5.62623 0.292893C5.43869 0.48043 5.33333 0.734784 5.33333 1C5.33333 1.26522 5.43869 1.51957 5.62623 1.70711C5.81376 1.89464 6.06812 2 6.33333 2C6.5522 2 6.76893 2.04311 6.97114 2.12687C7.17335 2.21063 7.35708 2.33339 7.51184 2.48816C7.66661 2.64292 7.78938 2.82665 7.87313 3.02886C7.95689 3.23107 8 3.4478 8 3.66667V5.66667C8 6.46232 7.68393 7.22538 7.12132 7.78799C6.55871 8.3506 5.79565 8.66667 5 8.66667C4.20435 8.66667 3.44129 8.3506 2.87868 7.78799C2.31607 7.22538 2 6.46232 2 5.66667V3.66667C2 3.22464 2.17559 2.80072 2.48816 2.48816C2.80072 2.17559 3.22464 2 3.66667 2C3.93188 2 4.18624 1.89464 4.37377 1.70711C4.56131 1.51957 4.66667 1.26522 4.66667 1C4.66667 0.734784 4.56131 0.48043 4.37377 0.292893C4.18624 0.105357 3.93188 0 3.66667 0C2.69453 0.00105878 1.76252 0.387707 1.07511 1.07511C0.387707 1.76252 0.00105878 2.69453 0 3.66667L0 5.66667C0.00154536 6.81877 0.400228 7.93513 1.12885 8.82757C1.85748 9.72002 2.8715 10.334 4 10.566V10.6667C4 12.0812 4.5619 13.4377 5.5621 14.4379C6.56229 15.4381 7.91885 16 9.33333 16C10.7478 16 12.1044 15.4381 13.1046 14.4379C14.1048 13.4377 14.6667 12.0812 14.6667 10.6667V8.43267C15.0643 8.24408 15.4004 7.9469 15.6363 7.57544C15.8723 7.20398 15.9983 6.77338 16 6.33333Z" fill="#1470F5"/>
</g>
<defs>
<clipPath id="clip0_2130_6910">
<rect width="16" height="16" fill="white"/>
</clipPath>
</defs>
</svg>
